<?xml version="1.0" encoding="UTF-8"?>
<!DOCTYPE svg PUBLIC "-//W3C//DTD SVG 1.1//EN" "http://www.w3.org/Graphics/SVG/1.1/DTD/svg11.dtd ">
<svg xmlns="http://www.w3.org/2000/svg" fill="#ffff" version="1.1" width="3092px" height="686px" style="shape-rendering:geometricPrecision; text-rendering:geometricPrecision; image-rendering:optimizeQuality; fill-rule:evenodd; clip-rule:evenodd" xmlns:xlink="http://www.w3.org/1999/xlink">
<g><path style="opacity:0.991" fill="#03e5d2" d="M 627.5,156.5 C 612.167,156.5 596.833,156.5 581.5,156.5C 576.351,150.083 569.684,145.916 561.5,144C 545.065,141.783 528.732,142.449 512.5,146C 498.401,149.191 484.401,152.691 470.5,156.5C 439.329,156.831 408.329,156.498 377.5,155.5C 389.042,146.475 401.042,137.975 413.5,130C 404.634,115.296 395.967,100.463 387.5,85.5C 352.833,84.1667 318.167,84.1667 283.5,85.5C 269.726,109.395 255.726,133.061 241.5,156.5C 211.148,157.159 181.148,156.492 151.5,154.5C 152.086,152.16 153.086,149.993 154.5,148C 138.783,140.991 122.45,138.657 105.5,141C 97.1383,143.535 91.1383,148.702 87.5,156.5C 70.423,156.818 53.423,156.485 36.5,155.5C 44.3993,121.767 65.3993,101.933 99.5,96C 116.284,94.3502 132.617,96.3502 148.5,102C 157.278,105.731 165.945,109.398 174.5,113C 195.96,75.9149 217.293,38.7482 238.5,1.5C 302.5,0.166667 366.5,0.166667 430.5,1.5C 449,33.8333 467.5,66.1667 486,98.5C 518.789,88.4559 551.289,89.2892 583.5,101C 608.817,111.168 623.483,129.668 627.5,156.5 Z"/></g>
<g><path style="opacity:0.993" fill="#03e1d5" d="M 151.5,154.5 C 181.148,156.492 211.148,157.159 241.5,156.5C 236.224,166.431 230.558,176.098 224.5,185.5C 195.833,185.5 167.167,185.5 138.5,185.5C 141.103,174.335 145.436,164.002 151.5,154.5 Z"/></g>
<g><path style="opacity:0.987" fill="#03e1d5" d="M 36.5,155.5 C 53.423,156.485 70.423,156.818 87.5,156.5C 85.7163,166.059 85.0496,175.725 85.5,185.5C 68.8333,185.5 52.1667,185.5 35.5,185.5C 35.3012,175.473 35.6345,165.473 36.5,155.5 Z"/></g>
<g><path style="opacity:0.983" fill="#03e1d5" d="M 377.5,155.5 C 408.329,156.498 439.329,156.831 470.5,156.5C 444.785,164.52 419.785,174.52 395.5,186.5C 377.007,185.503 358.341,185.17 339.5,185.5C 351.4,174.547 364.067,164.547 377.5,155.5 Z"/></g>
<g><path style="opacity:0.986" fill="#03e1d5" d="M 581.5,156.5 C 596.833,156.5 612.167,156.5 627.5,156.5C 628.768,166.065 628.435,175.732 626.5,185.5C 611.167,185.5 595.833,185.5 580.5,185.5C 583.924,175.915 584.257,166.248 581.5,156.5 Z"/></g>
<g><path style="opacity:0.906" fill="#03e1d6" d="M 516.5,185.5 C 497.167,185.5 477.833,185.5 458.5,185.5C 468.049,181.908 478.049,180.242 488.5,180.5C 498.345,180.028 507.678,181.695 516.5,185.5 Z"/></g>
<g><path style="opacity:0.988" fill="#04ddd8" d="M 35.5,185.5 C 52.1667,185.5 68.8333,185.5 85.5,185.5C 90.1629,198.842 95.9962,211.842 103,224.5C 110.19,236.888 117.357,249.222 124.5,261.5C 104.139,260.845 84.1387,261.512 64.5,263.5C 48.7093,239.893 39.0426,213.893 35.5,185.5 Z"/></g>
<g><path style="opacity:0.992" fill="#04ddd7" d="M 138.5,185.5 C 167.167,185.5 195.833,185.5 224.5,185.5C 211.001,209.836 197.001,233.836 182.5,257.5C 170.833,257.5 159.167,257.5 147.5,257.5C 136.904,238.942 133.07,218.942 136,197.5C 136.521,193.394 137.354,189.394 138.5,185.5 Z"/></g>
<g><path style="opacity:0.972" fill="#03ded7" d="M 339.5,185.5 C 358.341,185.17 377.007,185.503 395.5,186.5C 356.948,206.931 320.615,230.598 286.5,257.5C 280.642,257.822 274.975,257.489 269.5,256.5C 290.799,230.867 314.132,207.201 339.5,185.5 Z"/></g>
<g><path style="opacity:0.991" fill="#04ddd8" d="M 458.5,185.5 C 477.833,185.5 497.167,185.5 516.5,185.5C 525.805,188.319 534.472,192.486 542.5,198C 547.793,206.751 552.959,215.585 558,224.5C 567.041,212.421 574.541,199.421 580.5,185.5C 595.833,185.5 611.167,185.5 626.5,185.5C 618.244,213.036 604.578,237.369 585.5,258.5C 552.764,257.83 519.931,257.163 487,256.5C 486.601,256.728 486.435,257.062 486.5,257.5C 473.527,234.896 460.527,212.229 447.5,189.5C 450.862,187.379 454.529,186.045 458.5,185.5 Z"/></g>
<g><path style="opacity:0.986" fill="#03e5d2" d="M 1852.5,285.5 C 1832.63,285.815 1812.63,285.482 1792.5,284.5C 1799.46,258.701 1815.8,241.868 1841.5,234C 1873.19,226.545 1903.19,230.878 1931.5,247C 1933.85,248.013 1935.51,249.679 1936.5,252C 1930.47,267.224 1923.8,282.057 1916.5,296.5C 1902.09,283.196 1885.09,277.363 1865.5,279C 1860.58,280.126 1856.25,282.292 1852.5,285.5 Z"/></g>
<g><path style="opacity:0.984" fill="#03e5d2" d="M 2762.5,298.5 C 2761.52,294.366 2761.18,290.032 2761.5,285.5C 2745.32,285.17 2729.32,285.504 2713.5,286.5C 2710.83,286.5 2708.17,286.5 2705.5,286.5C 2671.67,285.502 2637.67,285.168 2603.5,285.5C 2629.53,244.656 2666.86,226.489 2715.5,231C 2731.66,232.706 2746.99,237.206 2761.5,244.5C 2762.5,262.488 2762.83,280.488 2762.5,298.5 Z"/></g>
<g><path style="opacity:0.985" fill="#03e5d2" d="M 873.5,285.5 C 850.092,285.177 826.758,285.511 803.5,286.5C 773.167,286.5 742.833,286.5 712.5,286.5C 712.5,269.5 712.5,252.5 712.5,235.5C 776.5,235.5 840.5,235.5 904.5,235.5C 895.028,252.652 884.695,269.319 873.5,285.5 Z"/></g>
<g><path style="opacity:0.997" fill="#03e5d2" d="M 990.5,286.5 C 970.242,285.512 949.909,285.179 929.5,285.5C 929.5,268.833 929.5,252.167 929.5,235.5C 976.167,235.5 1022.83,235.5 1069.5,235.5C 1069.5,252.5 1069.5,269.5 1069.5,286.5C 1043.17,286.5 1016.83,286.5 990.5,286.5 Z"/></g>
<g><path style="opacity:0.986" fill="#03e5d2" d="M 1276.5,285.5 C 1247.17,285.5 1217.83,285.5 1188.5,285.5C 1181.83,285.5 1175.17,285.5 1168.5,285.5C 1149.47,285.478 1130.14,285.478 1110.5,285.5C 1110.5,288.833 1110.5,292.167 1110.5,295.5C 1110.77,297.099 1110.43,298.432 1109.5,299.5C 1109.5,278.167 1109.5,256.833 1109.5,235.5C 1137.84,235.333 1166.17,235.5 1194.5,236C 1212.66,235.274 1230,238.607 1246.5,246C 1261.61,255.277 1271.61,268.444 1276.5,285.5 Z"/></g>
<g><path style="opacity:0.989" fill="#03e5d2" d="M 1578.5,284.5 C 1552.4,285.158 1526.4,285.825 1500.5,286.5C 1490.6,284.746 1480.6,284.08 1470.5,284.5C 1450.91,285.487 1431.24,285.821 1411.5,285.5C 1411.5,268.833 1411.5,252.167 1411.5,235.5C 1439.84,235.333 1468.17,235.5 1496.5,236C 1512.25,235.786 1527.58,238.119 1542.5,243C 1560.78,251.446 1572.78,265.28 1578.5,284.5 Z"/></g>
<g><path style="opacity:0.997" fill="#03e5d2" d="M 2121.5,277.5 C 2120.53,279.948 2120.19,282.615 2120.5,285.5C 2074.5,285.5 2028.5,285.5 1982.5,285.5C 1982.81,282.615 1982.47,279.948 1981.5,277.5C 1981.5,263.5 1981.5,249.5 1981.5,235.5C 2028.17,235.5 2074.83,235.5 2121.5,235.5C 2121.5,249.5 2121.5,263.5 2121.5,277.5 Z"/></g>
<g><path style="opacity:0.991" fill="#03e5d2" d="M 2309.5,285.5 C 2291.5,285.5 2273.5,285.5 2255.5,285.5C 2254.25,275.845 2252.92,275.512 2251.5,284.5C 2233.21,285.474 2214.88,285.807 2196.5,285.5C 2202.35,269.27 2208.02,252.937 2213.5,236.5C 2239.83,235.167 2266.17,235.167 2292.5,236.5C 2298.37,252.782 2304.04,269.115 2309.5,285.5 Z"/></g>
<g><path style="opacity:0.992" fill="#03e5d2" d="M 2558.5,283.5 C 2532.19,285.491 2505.52,286.158 2478.5,285.5C 2469.52,284.692 2460.52,284.358 2451.5,284.5C 2431.91,285.487 2412.24,285.821 2392.5,285.5C 2392.5,268.833 2392.5,252.167 2392.5,235.5C 2426.85,235.141 2461.18,235.641 2495.5,237C 2519.56,237.784 2538.4,247.951 2552,267.5C 2555.02,272.525 2557.18,277.858 2558.5,283.5 Z"/></g>
<g><path style="opacity:0.99" fill="#03e5d2" d="M 1756.5,285.5 C 1709.83,285.5 1663.17,285.5 1616.5,285.5C 1616.81,282.615 1616.47,279.948 1615.5,277.5C 1615.5,263.5 1615.5,249.5 1615.5,235.5C 1662.5,235.5 1709.5,235.5 1756.5,235.5C 1756.5,252.167 1756.5,268.833 1756.5,285.5 Z"/></g>
<g><path style="opacity:0.98" fill="#03e5d2" d="M 2859.5,292.5 C 2858.53,290.393 2858.2,288.059 2858.5,285.5C 2837.83,285.5 2817.17,285.5 2796.5,285.5C 2796.5,268.833 2796.5,252.167 2796.5,235.5C 2817.5,235.5 2838.5,235.5 2859.5,235.5C 2859.5,254.5 2859.5,273.5 2859.5,292.5 Z"/></g>
<g><path style="opacity:1" fill="#03e5d2" d="M 3003.5,285.5 C 2982.83,285.5 2962.17,285.5 2941.5,285.5C 2941.5,269.167 2941.5,252.833 2941.5,236.5C 2961.99,235.503 2982.66,235.169 3003.5,235.5C 3003.5,252.167 3003.5,268.833 3003.5,285.5 Z"/></g>
<g><path style="opacity:0.99" fill="#04d7dc" d="M 124.5,261.5 C 137.696,281.039 151.696,300.039 166.5,318.5C 130.094,318.826 93.7605,318.493 57.5,317.5C 63.9429,306.119 70.2763,294.619 76.5,283C 72.6871,276.361 68.6871,269.861 64.5,263.5C 84.1387,261.512 104.139,260.845 124.5,261.5 Z"/></g>
<g><path style="opacity:0.963" fill="#03d9db" d="M 147.5,257.5 C 159.167,257.5 170.833,257.5 182.5,257.5C 177.931,266.975 172.597,275.975 166.5,284.5C 158.438,276.706 152.104,267.706 147.5,257.5 Z"/></g>
<g><path style="opacity:0.896" fill="#03d9db" d="M 269.5,256.5 C 274.975,257.489 280.642,257.822 286.5,257.5C 271.877,269.113 257.21,280.779 242.5,292.5C 242.167,292.333 241.833,292.167 241.5,292C 250.491,279.825 259.825,267.991 269.5,256.5 Z"/></g>
<g><path style="opacity:0.993" fill="#04d7dc" d="M 585.5,258.5 C 583.856,260.481 582.19,262.481 580.5,264.5C 590.889,282.534 601.222,300.534 611.5,318.5C 581.5,318.5 551.5,318.5 521.5,318.5C 509.596,298.365 497.929,278.032 486.5,257.5C 486.435,257.062 486.601,256.728 487,256.5C 519.931,257.163 552.764,257.83 585.5,258.5 Z"/></g>
<g><path style="opacity:0.919" fill="#02e1d5" d="M 1615.5,277.5 C 1616.47,279.948 1616.81,282.615 1616.5,285.5C 1663.17,285.5 1709.83,285.5 1756.5,285.5C 1730.34,286.498 1704.01,286.831 1677.5,286.5C 1677.5,293.833 1677.5,301.167 1677.5,308.5C 1677.17,308.5 1676.83,308.5 1676.5,308.5C 1676.5,304.167 1676.5,299.833 1676.5,295.5C 1656.5,295.5 1636.5,295.5 1616.5,295.5C 1616.77,297.099 1616.43,298.432 1615.5,299.5C 1615.5,292.167 1615.5,284.833 1615.5,277.5 Z"/></g>
<g><path style="opacity:0.955" fill="#03e1d5" d="M 1981.5,277.5 C 1982.47,279.948 1982.81,282.615 1982.5,285.5C 2028.5,285.5 2074.5,285.5 2120.5,285.5C 2120.19,282.615 2120.53,279.948 2121.5,277.5C 2121.5,280.5 2121.5,283.5 2121.5,286.5C 2095.17,286.5 2068.83,286.5 2042.5,286.5C 2042.5,289.5 2042.5,292.5 2042.5,295.5C 2022.17,295.5 2001.83,295.5 1981.5,295.5C 1981.5,289.5 1981.5,283.5 1981.5,277.5 Z"/></g>
<g><path style="opacity:0.999" fill="#03e1d5" d="M 1168.5,285.5 C 1168.5,288.833 1168.5,292.167 1168.5,295.5C 1149.17,295.5 1129.83,295.5 1110.5,295.5C 1110.5,292.167 1110.5,288.833 1110.5,285.5C 1130.14,285.478 1149.47,285.478 1168.5,285.5 Z"/></g>
<g><path style="opacity:0.981" fill="#03e1d5" d="M 1470.5,284.5 C 1470.5,289.5 1470.5,294.5 1470.5,299.5C 1469.57,298.432 1469.23,297.099 1469.5,295.5C 1450.17,295.5 1430.83,295.5 1411.5,295.5C 1411.5,292.167 1411.5,288.833 1411.5,285.5C 1431.24,285.821 1450.91,285.487 1470.5,284.5 Z"/></g>
<g><path style="opacity:0.992" fill="#03e1d5" d="M 1578.5,284.5 C 1579.92,287.998 1580.58,291.665 1580.5,295.5C 1558.81,294.844 1537.47,295.511 1516.5,297.5C 1512.61,291.875 1507.27,288.208 1500.5,286.5C 1526.4,285.825 1552.4,285.158 1578.5,284.5 Z"/></g>
<g><path style="opacity:0.989" fill="#03e1d5" d="M 1792.5,284.5 C 1812.63,285.482 1832.63,285.815 1852.5,285.5C 1850.02,289.122 1848.69,293.122 1848.5,297.5C 1829.4,295.532 1810.07,294.865 1790.5,295.5C 1790.43,291.575 1791.1,287.909 1792.5,284.5 Z"/></g>
<g><path style="opacity:0.989" fill="#03e1d5" d="M 2251.5,284.5 C 2250.35,288.107 2249.35,291.773 2248.5,295.5C 2230.17,295.5 2211.83,295.5 2193.5,295.5C 2194.5,292.167 2195.5,288.833 2196.5,285.5C 2214.88,285.807 2233.21,285.474 2251.5,284.5 Z"/></g>
<g><path style="opacity:0.971" fill="#03e1d5" d="M 2451.5,284.5 C 2451.5,291.167 2451.5,297.833 2451.5,304.5C 2450.52,301.713 2450.19,298.713 2450.5,295.5C 2431.17,295.5 2411.83,295.5 2392.5,295.5C 2392.5,292.167 2392.5,288.833 2392.5,285.5C 2412.24,285.821 2431.91,285.487 2451.5,284.5 Z"/></g>
<g><path style="opacity:0.988" fill="#03e1d5" d="M 2558.5,283.5 C 2560.12,287.575 2561.12,291.908 2561.5,296.5C 2539.67,295.839 2517.83,295.172 2496,294.5C 2495.6,294.728 2495.43,295.062 2495.5,295.5C 2490.88,290.357 2485.21,287.023 2478.5,285.5C 2505.52,286.158 2532.19,285.491 2558.5,283.5 Z"/></g>
<g><path style="opacity:0.989" fill="#03e1d5" d="M 873.5,285.5 C 871.646,289.221 869.313,292.554 866.5,295.5C 843.994,295.831 821.66,295.497 799.5,294.5C 800.82,291.86 802.153,289.193 803.5,286.5C 826.758,285.511 850.092,285.177 873.5,285.5 Z"/></g>
<g><path style="opacity:0.985" fill="#03e1d5" d="M 929.5,285.5 C 949.909,285.179 970.242,285.512 990.5,286.5C 990.5,290.833 990.5,295.167 990.5,299.5C 989.566,298.432 989.232,297.099 989.5,295.5C 969.833,295.5 950.167,295.5 930.5,295.5C 930.768,297.099 930.434,298.432 929.5,299.5C 929.5,294.833 929.5,290.167 929.5,285.5 Z"/></g>
<g><path style="opacity:0.982" fill="#02e1d5" d="M 1188.5,285.5 C 1217.83,285.5 1247.17,285.5 1276.5,285.5C 1277.94,288.937 1278.94,292.603 1279.5,296.5C 1258.24,295.512 1236.91,295.178 1215.5,295.5C 1213.33,293.5 1211,291.666 1208.5,290C 1201.86,287.774 1195.19,286.274 1188.5,285.5 Z"/></g>
<g><path style="opacity:0.991" fill="#03e1d5" d="M 2255.5,285.5 C 2273.5,285.5 2291.5,285.5 2309.5,285.5C 2310.9,288.699 2311.9,292.032 2312.5,295.5C 2294.5,295.5 2276.5,295.5 2258.5,295.5C 2257.5,292.167 2256.5,288.833 2255.5,285.5 Z"/></g>
<g><path style="opacity:0.982" fill="#03e1d5" d="M 2603.5,285.5 C 2637.67,285.168 2671.67,285.502 2705.5,286.5C 2694.61,286.719 2684.61,289.719 2675.5,295.5C 2649.83,295.5 2624.17,295.5 2598.5,295.5C 2599.64,291.883 2601.31,288.55 2603.5,285.5 Z"/></g>
<g><path style="opacity:0.974" fill="#03e0d5" d="M 2713.5,286.5 C 2729.32,285.504 2745.32,285.17 2761.5,285.5C 2761.18,290.032 2761.52,294.366 2762.5,298.5C 2762.83,303.544 2762.49,308.544 2761.5,313.5C 2754.57,306.062 2746.9,299.562 2738.5,294C 2730.66,289.777 2722.33,287.277 2713.5,286.5 Z"/></g>
<g><path style="opacity:0.988" fill="#03e1d5" d="M 2796.5,285.5 C 2817.17,285.5 2837.83,285.5 2858.5,285.5C 2858.2,288.059 2858.53,290.393 2859.5,292.5C 2859.5,293.5 2859.5,294.5 2859.5,295.5C 2838.83,295.5 2818.17,295.5 2797.5,295.5C 2797.77,297.099 2797.43,298.432 2796.5,299.5C 2796.5,294.833 2796.5,290.167 2796.5,285.5 Z"/></g>
<g><path style="opacity:1" fill="#03e1d5" d="M 2941.5,285.5 C 2962.17,285.5 2982.83,285.5 3003.5,285.5C 3003.5,288.833 3003.5,292.167 3003.5,295.5C 2982.83,295.5 2962.17,295.5 2941.5,295.5C 2941.5,292.167 2941.5,288.833 2941.5,285.5 Z"/></g>
<g><path style="opacity:0.974" fill="#03d5dd" d="M 375.5,318.5 C 349.833,318.5 324.167,318.5 298.5,318.5C 305.674,301.806 318.507,293.139 337,292.5C 355.14,293.497 367.974,302.164 375.5,318.5 Z"/></g>
<g><path style="opacity:0.988" fill="#04ddd8" d="M 799.5,294.5 C 821.66,295.497 843.994,295.831 866.5,295.5C 861.912,304.35 856.579,312.684 850.5,320.5C 827.994,320.831 805.66,320.497 783.5,319.5C 788.088,310.65 793.421,302.316 799.5,294.5 Z"/></g>
<g><path style="opacity:0.988" fill="#04ddd8" d="M 2561.5,296.5 C 2562.79,304.495 2562.79,312.495 2561.5,320.5C 2541.17,320.5 2520.83,320.5 2500.5,320.5C 2501,311.68 2499.34,303.347 2495.5,295.5C 2495.43,295.062 2495.6,294.728 2496,294.5C 2517.83,295.172 2539.67,295.839 2561.5,296.5 Z"/></g>
<g><path style="opacity:0.991" fill="#04ddd8" d="M 990.5,299.5 C 990.5,306.5 990.5,313.5 990.5,320.5C 970.167,320.5 949.833,320.5 929.5,320.5C 929.5,313.5 929.5,306.5 929.5,299.5C 930.434,298.432 930.768,297.099 930.5,295.5C 950.167,295.5 969.833,295.5 989.5,295.5C 989.232,297.099 989.566,298.432 990.5,299.5 Z"/></g>
<g><path style="opacity:0.999" fill="#04ddd8" d="M 1110.5,295.5 C 1129.83,295.5 1149.17,295.5 1168.5,295.5C 1168.5,303.833 1168.5,312.167 1168.5,320.5C 1149.17,320.5 1129.83,320.5 1110.5,320.5C 1110.81,316.958 1110.48,313.625 1109.5,310.5C 1109.5,306.833 1109.5,303.167 1109.5,299.5C 1110.43,298.432 1110.77,297.099 1110.5,295.5 Z"/></g>
<g><path style="opacity:0.993" fill="#04ddd8" d="M 1215.5,295.5 C 1236.91,295.178 1258.24,295.512 1279.5,296.5C 1280.79,304.528 1281.12,312.528 1280.5,320.5C 1260.17,320.5 1239.83,320.5 1219.5,320.5C 1220.96,311.724 1219.63,303.391 1215.5,295.5 Z"/></g>
<g><path style="opacity:0.986" fill="#04ddd8" d="M 1411.5,295.5 C 1430.83,295.5 1450.17,295.5 1469.5,295.5C 1469.23,297.099 1469.57,298.432 1470.5,299.5C 1470.5,306.5 1470.5,313.5 1470.5,320.5C 1450.83,320.5 1431.17,320.5 1411.5,320.5C 1411.5,312.167 1411.5,303.833 1411.5,295.5 Z"/></g>
<g><path style="opacity:0.99" fill="#04ddd8" d="M 1580.5,295.5 C 1581.83,303.833 1581.83,312.167 1580.5,320.5C 1560.09,320.821 1539.76,320.488 1519.5,319.5C 1520.02,311.931 1519.02,304.597 1516.5,297.5C 1537.47,295.511 1558.81,294.844 1580.5,295.5 Z"/></g>
<g><path style="opacity:0.991" fill="#04ddd8" d="M 1676.5,308.5 C 1676.5,312.5 1676.5,316.5 1676.5,320.5C 1656.5,320.5 1636.5,320.5 1616.5,320.5C 1616.77,318.901 1616.43,317.568 1615.5,316.5C 1615.5,310.833 1615.5,305.167 1615.5,299.5C 1616.43,298.432 1616.77,297.099 1616.5,295.5C 1636.5,295.5 1656.5,295.5 1676.5,295.5C 1676.5,299.833 1676.5,304.167 1676.5,308.5 Z"/></g>
<g><path style="opacity:0.988" fill="#04ddd8" d="M 1790.5,295.5 C 1810.07,294.865 1829.4,295.532 1848.5,297.5C 1850.09,307.262 1855.76,313.428 1865.5,316C 1871.25,317.973 1876.92,319.806 1882.5,321.5C 1852.17,321.5 1821.83,321.5 1791.5,321.5C 1789.55,312.878 1789.22,304.212 1790.5,295.5 Z"/></g>
<g><path style="opacity:0.989" fill="#04ddd8" d="M 1981.5,295.5 C 2001.83,295.5 2022.17,295.5 2042.5,295.5C 2042.5,303.833 2042.5,312.167 2042.5,320.5C 2022.17,320.5 2001.83,320.5 1981.5,320.5C 1981.5,312.167 1981.5,303.833 1981.5,295.5 Z"/></g>
<g><path style="opacity:0.988" fill="#04ddd8" d="M 2193.5,295.5 C 2211.83,295.5 2230.17,295.5 2248.5,295.5C 2246.21,304.037 2243.54,312.37 2240.5,320.5C 2221.99,320.83 2203.66,320.497 2185.5,319.5C 2187.57,311.285 2190.24,303.285 2193.5,295.5 Z"/></g>
<g><path style="opacity:0.988" fill="#04ddd8" d="M 2258.5,295.5 C 2276.5,295.5 2294.5,295.5 2312.5,295.5C 2315.54,302.954 2318.21,310.62 2320.5,318.5C 2311.86,319.832 2302.86,320.498 2293.5,320.5C 2284.09,320.487 2274.76,320.154 2265.5,319.5C 2262.77,311.633 2260.43,303.633 2258.5,295.5 Z"/></g>
<g><path style="opacity:0.995" fill="#04ddd8" d="M 2392.5,295.5 C 2411.83,295.5 2431.17,295.5 2450.5,295.5C 2450.19,298.713 2450.52,301.713 2451.5,304.5C 2451.5,306.5 2451.5,308.5 2451.5,310.5C 2450.52,313.625 2450.19,316.958 2450.5,320.5C 2431.17,320.5 2411.83,320.5 2392.5,320.5C 2392.5,312.167 2392.5,303.833 2392.5,295.5 Z"/></g>
<g><path style="opacity:0.99" fill="#04ddd8" d="M 2598.5,295.5 C 2624.17,295.5 2649.83,295.5 2675.5,295.5C 2667.16,302.517 2660.5,310.85 2655.5,320.5C 2633.47,321.156 2611.81,320.489 2590.5,318.5C 2592,310.337 2594.66,302.67 2598.5,295.5 Z"/></g>
<g><path style="opacity:0.988" fill="#04ddd8" d="M 2859.5,295.5 C 2859.5,300.5 2859.5,305.5 2859.5,310.5C 2858.52,313.625 2858.19,316.958 2858.5,320.5C 2837.83,320.5 2817.17,320.5 2796.5,320.5C 2796.5,313.5 2796.5,306.5 2796.5,299.5C 2797.43,298.432 2797.77,297.099 2797.5,295.5C 2818.17,295.5 2838.83,295.5 2859.5,295.5 Z"/></g>
<g><path style="opacity:1" fill="#03dfda" d="M 2941.5,236.5 C 2941.5,252.833 2941.5,269.167 2941.5,285.5C 2941.5,288.833 2941.5,292.167 2941.5,295.5C 2962.17,295.5 2982.83,295.5 3003.5,295.5C 3003.5,303.833 3003.5,312.167 3003.5,320.5C 2982.83,320.5 2962.17,320.5 2941.5,320.5C 2941.77,322.099 2941.43,323.432 2940.5,324.5C 2940.17,294.995 2940.5,265.662 2941.5,236.5 Z"/></g>
<g><path style="opacity:0.995" fill="#04d3df" d="M 57.5,317.5 C 93.7605,318.493 130.094,318.826 166.5,318.5C 173.93,327.686 181.596,336.686 189.5,345.5C 172.833,345.5 156.167,345.5 139.5,345.5C 137.265,344.772 135.432,343.439 134,341.5C 133.392,343.066 132.558,344.4 131.5,345.5C 101.5,345.5 71.5,345.5 41.5,345.5C 46.3309,335.833 51.6643,326.5 57.5,317.5 Z"/></g>
<g><path style="opacity:0.994" fill="#04d3df" d="M 298.5,318.5 C 324.167,318.5 349.833,318.5 375.5,318.5C 379.363,327.226 380.03,336.226 377.5,345.5C 350.426,345.176 323.426,345.509 296.5,346.5C 293.545,336.837 294.211,327.504 298.5,318.5 Z"/></g>
<g><path style="opacity:0.993" fill="#04d3df" d="M 521.5,318.5 C 551.5,318.5 581.5,318.5 611.5,318.5C 617.07,327.299 622.404,336.299 627.5,345.5C 597.329,345.169 567.329,345.502 537.5,346.5C 531.803,337.446 526.469,328.113 521.5,318.5 Z"/></g>
<g><path style="opacity:0.989" fill="#04d7dc" d="M 783.5,319.5 C 805.66,320.497 827.994,320.831 850.5,320.5C 846.096,328.305 841.429,335.972 836.5,343.5C 813.908,342.511 791.242,342.178 768.5,342.5C 773.114,334.558 778.114,326.892 783.5,319.5 Z"/></g>
<g><path style="opacity:0.982" fill="#04d7dc" d="M 929.5,320.5 C 949.833,320.5 970.167,320.5 990.5,320.5C 990.5,322.167 990.5,323.833 990.5,325.5C 1015.5,325.5 1040.5,325.5 1065.5,325.5C 1065.5,332.167 1065.5,338.833 1065.5,345.5C 1064.6,344.791 1064.26,343.791 1064.5,342.5C 1019.5,342.5 974.5,342.5 929.5,342.5C 929.5,335.167 929.5,327.833 929.5,320.5 Z"/></g>
<g><path style="opacity:0.989" fill="#04d7dc" d="M 1109.5,310.5 C 1110.48,313.625 1110.81,316.958 1110.5,320.5C 1129.83,320.5 1149.17,320.5 1168.5,320.5C 1168.5,326.5 1168.5,332.5 1168.5,338.5C 1181.37,339.271 1194.04,338.104 1206.5,335C 1213.04,332.05 1217.37,327.217 1219.5,320.5C 1239.83,320.5 1260.17,320.5 1280.5,320.5C 1280.55,328.531 1279.22,336.197 1276.5,343.5C 1221.34,342.501 1166,342.168 1110.5,342.5C 1110.77,344.099 1110.43,345.432 1109.5,346.5C 1109.5,334.5 1109.5,322.5 1109.5,310.5 Z"/></g>
<g><path style="opacity:0.984" fill="#04d7dc" d="M 1411.5,320.5 C 1431.17,320.5 1450.83,320.5 1470.5,320.5C 1470.5,328.167 1470.5,335.833 1470.5,343.5C 1450.91,342.513 1431.24,342.179 1411.5,342.5C 1411.5,335.167 1411.5,327.833 1411.5,320.5 Z"/></g>
<g><path style="opacity:0.987" fill="#04d7dc" d="M 1519.5,319.5 C 1539.76,320.488 1560.09,320.821 1580.5,320.5C 1580,328.519 1577.67,335.852 1573.5,342.5C 1548.5,342.5 1523.5,342.5 1498.5,342.5C 1510.7,339.636 1517.7,331.969 1519.5,319.5 Z"/></g>
<g><path style="opacity:0.984" fill="#04d7dc" d="M 1676.5,308.5 C 1676.83,308.5 1677.17,308.5 1677.5,308.5C 1677.5,314.167 1677.5,319.833 1677.5,325.5C 1702.17,325.5 1726.83,325.5 1751.5,325.5C 1751.5,331.167 1751.5,336.833 1751.5,342.5C 1706.5,342.5 1661.5,342.5 1616.5,342.5C 1616.74,343.791 1616.4,344.791 1615.5,345.5C 1615.5,335.833 1615.5,326.167 1615.5,316.5C 1616.43,317.568 1616.77,318.901 1616.5,320.5C 1636.5,320.5 1656.5,320.5 1676.5,320.5C 1676.5,316.5 1676.5,312.5 1676.5,308.5 Z"/></g>
<g><path style="opacity:0.992" fill="#04d7dc" d="M 1791.5,321.5 C 1821.83,321.5 1852.17,321.5 1882.5,321.5C 1899.39,324.898 1914.73,331.564 1928.5,341.5C 1886.34,342.499 1844,342.832 1801.5,342.5C 1796.32,336.471 1792.99,329.471 1791.5,321.5 Z"/></g>
<g><path style="opacity:0.983" fill="#04d7dc" d="M 1981.5,320.5 C 2001.83,320.5 2022.17,320.5 2042.5,320.5C 2042.5,322.167 2042.5,323.833 2042.5,325.5C 2067.5,325.5 2092.5,325.5 2117.5,325.5C 2117.5,331.167 2117.5,336.833 2117.5,342.5C 2072.5,342.5 2027.5,342.5 1982.5,342.5C 1982.74,343.791 1982.4,344.791 1981.5,345.5C 1981.5,337.167 1981.5,328.833 1981.5,320.5 Z"/></g>
<g><path style="opacity:0.988" fill="#04d7dc" d="M 2185.5,319.5 C 2203.66,320.497 2221.99,320.83 2240.5,320.5C 2238.74,328.442 2236.41,336.109 2233.5,343.5C 2215.01,342.503 2196.34,342.17 2177.5,342.5C 2179.4,334.47 2182.06,326.803 2185.5,319.5 Z"/></g>
<g><path style="opacity:0.989" fill="#04d7dc" d="M 2320.5,318.5 C 2323.74,326.216 2326.41,334.216 2328.5,342.5C 2309.83,342.5 2291.17,342.5 2272.5,342.5C 2269.97,334.909 2267.64,327.243 2265.5,319.5C 2274.76,320.154 2284.09,320.487 2293.5,320.5C 2302.86,320.498 2311.86,319.832 2320.5,318.5 Z"/></g>
<g><path style="opacity:0.989" fill="#04d7dc" d="M 2451.5,310.5 C 2451.5,320.833 2451.5,331.167 2451.5,341.5C 2431.91,342.487 2412.24,342.821 2392.5,342.5C 2392.5,335.167 2392.5,327.833 2392.5,320.5C 2411.83,320.5 2431.17,320.5 2450.5,320.5C 2450.19,316.958 2450.52,313.625 2451.5,310.5 Z"/></g>
<g><path style="opacity:0.987" fill="#04d7dc" d="M 2500.5,320.5 C 2520.83,320.5 2541.17,320.5 2561.5,320.5C 2560.37,328.234 2558.03,335.568 2554.5,342.5C 2529.99,342.831 2505.66,342.498 2481.5,341.5C 2492.46,338.547 2498.79,331.547 2500.5,320.5 Z"/></g>
<g><path style="opacity:0.991" fill="#04d7dc" d="M 2590.5,318.5 C 2611.81,320.489 2633.47,321.156 2655.5,320.5C 2652.81,327.25 2651.14,334.25 2650.5,341.5C 2629.17,342.833 2607.83,342.833 2586.5,341.5C 2587.11,333.586 2588.45,325.919 2590.5,318.5 Z"/></g>
<g><path style="opacity:0.99" fill="#04d7dc" d="M 2859.5,310.5 C 2859.5,315.167 2859.5,319.833 2859.5,324.5C 2886.5,324.5 2913.5,324.5 2940.5,324.5C 2941.43,323.432 2941.77,322.099 2941.5,320.5C 2962.17,320.5 2982.83,320.5 3003.5,320.5C 3003.5,327.833 3003.5,335.167 3003.5,342.5C 2934.5,342.5 2865.5,342.5 2796.5,342.5C 2796.5,335.167 2796.5,327.833 2796.5,320.5C 2817.17,320.5 2837.83,320.5 2858.5,320.5C 2858.19,316.958 2858.52,313.625 2859.5,310.5 Z"/></g>
<g><path style="opacity:0.994" fill="#04d3df" d="M 1928.5,341.5 C 1931.88,343.88 1934.55,346.88 1936.5,350.5C 1895,351.499 1853.34,351.832 1811.5,351.5C 1807.54,349.212 1804.21,346.212 1801.5,342.5C 1844,342.832 1886.34,342.499 1928.5,341.5 Z"/></g>
<g><path style="opacity:0.986" fill="#04d3df" d="M 2451.5,341.5 C 2461.22,343.95 2471.22,343.95 2481.5,341.5C 2505.66,342.498 2529.99,342.831 2554.5,342.5C 2553.23,346.054 2551.23,349.054 2548.5,351.5C 2496.5,351.5 2444.5,351.5 2392.5,351.5C 2392.5,348.5 2392.5,345.5 2392.5,342.5C 2412.24,342.821 2431.91,342.487 2451.5,341.5 Z"/></g>
<g><path style="opacity:0.989" fill="#04d3df" d="M 2586.5,341.5 C 2607.83,342.833 2629.17,342.833 2650.5,341.5C 2649.95,344.807 2649.62,348.14 2649.5,351.5C 2628.5,351.5 2607.5,351.5 2586.5,351.5C 2586.5,348.167 2586.5,344.833 2586.5,341.5 Z"/></g>
<g><path style="opacity:0.993" fill="#04d3df" d="M 768.5,342.5 C 791.242,342.178 813.908,342.511 836.5,343.5C 834.467,346.523 832.467,349.523 830.5,352.5C 808.167,351.833 785.833,351.167 763.5,350.5C 764.669,347.489 766.336,344.822 768.5,342.5 Z"/></g>
<g><path style="opacity:0.996" fill="#04d2df" d="M 929.5,342.5 C 974.5,342.5 1019.5,342.5 1064.5,342.5C 1064.26,343.791 1064.6,344.791 1065.5,345.5C 1065.5,347.5 1065.5,349.5 1065.5,351.5C 1020.5,351.5 975.5,351.5 930.5,351.5C 930.784,349.585 930.451,347.919 929.5,346.5C 929.5,345.167 929.5,343.833 929.5,342.5 Z"/></g>
<g><path style="opacity:0.999" fill="#04d2df" d="M 1276.5,343.5 C 1276.02,346.443 1275.02,349.11 1273.5,351.5C 1219.17,351.5 1164.83,351.5 1110.5,351.5C 1110.5,352.833 1110.5,354.167 1110.5,355.5C 1110.17,355.5 1109.83,355.5 1109.5,355.5C 1109.5,352.5 1109.5,349.5 1109.5,346.5C 1110.43,345.432 1110.77,344.099 1110.5,342.5C 1166,342.168 1221.34,342.501 1276.5,343.5 Z"/></g>
<g><path style="opacity:0.986" fill="#04d3df" d="M 1411.5,342.5 C 1431.24,342.179 1450.91,342.513 1470.5,343.5C 1479.86,343.65 1489.19,343.317 1498.5,342.5C 1523.5,342.5 1548.5,342.5 1573.5,342.5C 1572.28,346.049 1570.28,349.049 1567.5,351.5C 1515.5,351.5 1463.5,351.5 1411.5,351.5C 1411.5,348.5 1411.5,345.5 1411.5,342.5 Z"/></g>
<g><path style="opacity:0.999" fill="#04d3df" d="M 1751.5,342.5 C 1751.5,343.833 1751.5,345.167 1751.5,346.5C 1750.55,347.919 1750.22,349.585 1750.5,351.5C 1705.83,351.5 1661.17,351.5 1616.5,351.5C 1616.78,349.585 1616.45,347.919 1615.5,346.5C 1615.5,346.167 1615.5,345.833 1615.5,345.5C 1616.4,344.791 1616.74,343.791 1616.5,342.5C 1661.5,342.5 1706.5,342.5 1751.5,342.5 Z"/></g>
<g><path style="opacity:0.996" fill="#04d2df" d="M 2117.5,342.5 C 2117.5,343.833 2117.5,345.167 2117.5,346.5C 2116.55,347.919 2116.22,349.585 2116.5,351.5C 2071.5,351.5 2026.5,351.5 1981.5,351.5C 1981.5,349.5 1981.5,347.5 1981.5,345.5C 1982.4,344.791 1982.74,343.791 1982.5,342.5C 2027.5,342.5 2072.5,342.5 2117.5,342.5 Z"/></g>
<g><path style="opacity:0.986" fill="#04d3df" d="M 2177.5,342.5 C 2196.34,342.17 2215.01,342.503 2233.5,343.5C 2233.28,347.162 2232.28,350.495 2230.5,353.5C 2212.2,351.513 2193.53,350.846 2174.5,351.5C 2174.93,348.215 2175.93,345.215 2177.5,342.5 Z"/></g>
<g><path style="opacity:0.993" fill="#05d3df" d="M 2272.5,342.5 C 2291.17,342.5 2309.83,342.5 2328.5,342.5C 2330.2,345.261 2331.54,348.261 2332.5,351.5C 2313.42,351.18 2294.42,351.513 2275.5,352.5C 2274.5,349.183 2273.5,345.85 2272.5,342.5 Z"/></g>
<g><path style="opacity:0.999" fill="#04d2df" d="M 2796.5,342.5 C 2865.5,342.5 2934.5,342.5 3003.5,342.5C 3003.5,345.5 3003.5,348.5 3003.5,351.5C 2934.83,351.5 2866.17,351.5 2797.5,351.5C 2797.78,349.585 2797.45,347.919 2796.5,346.5C 2796.5,345.167 2796.5,343.833 2796.5,342.5 Z"/></g>
<g><path style="opacity:0.923" fill="#05d0e1" d="M 449.5,378.5 C 446.109,376.875 442.442,375.875 438.5,375.5C 442.51,362.303 447.01,349.303 452,336.5C 452.53,350.722 451.697,364.722 449.5,378.5 Z"/></g>
<g><path style="opacity:0.994" fill="#05d0e1" d="M 41.5,345.5 C 71.5,345.5 101.5,345.5 131.5,345.5C 125.656,356.533 119.322,367.199 112.5,377.5C 83.1667,376.833 53.8333,376.167 24.5,375.5C 29.6639,365.167 35.3305,355.167 41.5,345.5 Z"/></g>
<g><path style="opacity:0.983" fill="#05d0e1" d="M 139.5,345.5 C 156.167,345.5 172.833,345.5 189.5,345.5C 199.139,355.473 208.806,365.473 218.5,375.5C 205.5,376.167 192.5,376.833 179.5,377.5C 165.276,367.943 151.943,357.276 139.5,345.5 Z"/></g>
<g><path style="opacity:0.986" fill="#05d0e1" d="M 377.5,345.5 C 371.515,365.583 358.015,375.916 337,376.5C 316.557,375.863 303.057,365.863 296.5,346.5C 323.426,345.509 350.426,345.176 377.5,345.5 Z"/></g>
<g><path style="opacity:0.994" fill="#05d0e1" d="M 627.5,345.5 C 633.195,355.517 638.861,365.517 644.5,375.5C 614.671,376.498 584.671,376.831 554.5,376.5C 548.833,366.5 543.167,356.5 537.5,346.5C 567.329,345.502 597.329,345.169 627.5,345.5 Z"/></g>
<g><path style="opacity:0.99" fill="#05d0e1" d="M 929.5,346.5 C 930.451,347.919 930.784,349.585 930.5,351.5C 975.5,351.5 1020.5,351.5 1065.5,351.5C 1065.5,357.167 1065.5,362.833 1065.5,368.5C 1064.54,366.735 1064.21,364.735 1064.5,362.5C 1019.83,362.5 975.167,362.5 930.5,362.5C 930.768,360.901 930.434,359.568 929.5,358.5C 929.5,354.5 929.5,350.5 929.5,346.5 Z"/></g>
<g><path style="opacity:0.99" fill="#05d0e1" d="M 1615.5,346.5 C 1616.45,347.919 1616.78,349.585 1616.5,351.5C 1661.17,351.5 1705.83,351.5 1750.5,351.5C 1750.22,349.585 1750.55,347.919 1751.5,346.5C 1751.5,351.833 1751.5,357.167 1751.5,362.5C 1706.17,362.5 1660.83,362.5 1615.5,362.5C 1615.5,357.167 1615.5,351.833 1615.5,346.5 Z"/></g>
<g><path style="opacity:0.991" fill="#05d0e1" d="M 2117.5,346.5 C 2117.5,351.833 2117.5,357.167 2117.5,362.5C 2072.17,362.5 2026.83,362.5 1981.5,362.5C 1981.5,358.833 1981.5,355.167 1981.5,351.5C 2026.5,351.5 2071.5,351.5 2116.5,351.5C 2116.22,349.585 2116.55,347.919 2117.5,346.5 Z"/></g>
<g><path style="opacity:0.998" fill="#05d0e1" d="M 2796.5,346.5 C 2797.45,347.919 2797.78,349.585 2797.5,351.5C 2866.17,351.5 2934.83,351.5 3003.5,351.5C 3003.5,355.167 3003.5,358.833 3003.5,362.5C 2934.83,362.5 2866.17,362.5 2797.5,362.5C 2797.77,360.901 2797.43,359.568 2796.5,358.5C 2796.5,354.5 2796.5,350.5 2796.5,346.5 Z"/></g>
<g><path style="opacity:0.99" fill="#05d0e1" d="M 763.5,350.5 C 785.833,351.167 808.167,351.833 830.5,352.5C 828.646,356.221 826.313,359.554 823.5,362.5C 800.833,362.5 778.167,362.5 755.5,362.5C 757.684,358.119 760.35,354.119 763.5,350.5 Z"/></g>
<g><path style="opacity:0.998" fill="#05d0e1" d="M 1273.5,351.5 C 1272.27,355.62 1270.27,359.287 1267.5,362.5C 1215.17,362.5 1162.83,362.5 1110.5,362.5C 1110.5,360.167 1110.5,357.833 1110.5,355.5C 1110.5,354.167 1110.5,352.833 1110.5,351.5C 1164.83,351.5 1219.17,351.5 1273.5,351.5 Z"/></g>
<g><path style="opacity:0.994" fill="#05d0e1" d="M 1411.5,351.5 C 1463.5,351.5 1515.5,351.5 1567.5,351.5C 1564.27,356.628 1559.94,360.628 1554.5,363.5C 1507,362.501 1459.34,362.168 1411.5,362.5C 1411.5,358.833 1411.5,355.167 1411.5,351.5 Z"/></g>
<g><path style="opacity:0.994" fill="#05d0e1" d="M 1936.5,350.5 C 1939.53,353.902 1941.53,357.902 1942.5,362.5C 1906.66,362.168 1871,362.502 1835.5,363.5C 1826.62,361.062 1818.62,357.062 1811.5,351.5C 1853.34,351.832 1895,351.499 1936.5,350.5 Z"/></g>
<g><path style="opacity:0.991" fill="#05d0e1" d="M 2174.5,351.5 C 2193.53,350.846 2212.2,351.513 2230.5,353.5C 2230.1,357.116 2229.1,360.45 2227.5,363.5C 2208.67,362.503 2189.67,362.17 2170.5,362.5C 2171.46,358.605 2172.8,354.939 2174.5,351.5 Z"/></g>
<g><path style="opacity:0.99" fill="#05d0e1" d="M 2332.5,351.5 C 2333.5,354.833 2334.5,358.167 2335.5,361.5C 2316.5,362.833 2297.5,362.833 2278.5,361.5C 2277.3,358.579 2276.3,355.579 2275.5,352.5C 2294.42,351.513 2313.42,351.18 2332.5,351.5 Z"/></g>
<g><path style="opacity:0.996" fill="#05d0e1" d="M 2392.5,351.5 C 2444.5,351.5 2496.5,351.5 2548.5,351.5C 2544.79,356.208 2540.46,360.208 2535.5,363.5C 2488,362.501 2440.34,362.168 2392.5,362.5C 2392.5,358.833 2392.5,355.167 2392.5,351.5 Z"/></g>
<g><path style="opacity:0.988" fill="#05d0e1" d="M 2586.5,351.5 C 2607.5,351.5 2628.5,351.5 2649.5,351.5C 2649.93,355.824 2650.26,360.158 2650.5,364.5C 2629.73,362.529 2608.73,361.862 2587.5,362.5C 2586.52,359.038 2586.19,355.371 2586.5,351.5 Z"/></g>
<g><path style="opacity:0.974" fill="#05cbe4" d="M 929.5,358.5 C 930.434,359.568 930.768,360.901 930.5,362.5C 975.167,362.5 1019.83,362.5 1064.5,362.5C 1064.21,364.735 1064.54,366.735 1065.5,368.5C 1065.5,370.833 1065.5,373.167 1065.5,375.5C 1040.5,375.5 1015.5,375.5 990.5,375.5C 990.5,376.5 990.5,377.5 990.5,378.5C 989.549,379.919 989.216,381.585 989.5,383.5C 969.833,383.5 950.167,383.5 930.5,383.5C 930.768,385.099 930.434,386.432 929.5,387.5C 929.5,377.833 929.5,368.167 929.5,358.5 Z"/></g>
<g><path style="opacity:0.992" fill="#05cce5" d="M 2796.5,358.5 C 2797.43,359.568 2797.77,360.901 2797.5,362.5C 2866.17,362.5 2934.83,362.5 3003.5,362.5C 3003.5,369.5 3003.5,376.5 3003.5,383.5C 2982.83,383.5 2962.17,383.5 2941.5,383.5C 2941.5,390.167 2941.5,396.833 2941.5,403.5C 2941.5,405.833 2941.5,408.167 2941.5,410.5C 2941.5,414.833 2941.5,419.167 2941.5,423.5C 2941.5,428.833 2941.5,434.167 2941.5,439.5C 2941.5,441.5 2941.5,443.5 2941.5,445.5C 2941.5,451.833 2941.5,458.167 2941.5,464.5C 2940.5,433.671 2940.17,402.671 2940.5,371.5C 2913.5,371.5 2886.5,371.5 2859.5,371.5C 2859.5,375.167 2859.5,378.833 2859.5,382.5C 2838.91,383.488 2818.24,383.821 2797.5,383.5C 2797.78,381.585 2797.45,379.919 2796.5,378.5C 2796.5,371.833 2796.5,365.167 2796.5,358.5 Z"/></g>
<g><path style="opacity:0.974" fill="#05cae5" d="M 2278.5,361.5 C 2297.5,362.833 2316.5,362.833 2335.5,361.5C 2338.44,369.056 2341.11,376.723 2343.5,384.5C 2283.1,384.171 2222.76,384.504 2162.5,385.5C 2164.8,377.609 2167.46,369.942 2170.5,362.5C 2189.67,362.17 2208.67,362.503 2227.5,363.5C 2226.78,368.329 2225.45,372.996 2223.5,377.5C 2243.49,378.666 2263.49,378.833 2283.5,378C 2281.53,372.599 2279.87,367.099 2278.5,361.5 Z"/></g>
<g><path style="opacity:0.99" fill="#05cbe5" d="M 755.5,362.5 C 778.167,362.5 800.833,362.5 823.5,362.5C 819.555,369.77 815.222,376.77 810.5,383.5C 787.808,384.156 765.475,383.489 743.5,381.5C 747.253,374.99 751.253,368.656 755.5,362.5 Z"/></g>
<g><path style="opacity:0.997" fill="#05cbe5" d="M 1109.5,355.5 C 1109.83,355.5 1110.17,355.5 1110.5,355.5C 1110.5,357.833 1110.5,360.167 1110.5,362.5C 1162.83,362.5 1215.17,362.5 1267.5,362.5C 1260.25,372.41 1250.92,379.743 1239.5,384.5C 1196.67,383.501 1153.67,383.168 1110.5,383.5C 1110.78,381.585 1110.45,379.919 1109.5,378.5C 1109.5,370.833 1109.5,363.167 1109.5,355.5 Z"/></g>
<g><path style="opacity:0.99" fill="#05cbe5" d="M 1411.5,362.5 C 1459.34,362.168 1507,362.501 1554.5,363.5C 1547.53,368.108 1539.86,371.275 1531.5,373C 1533.64,376.11 1535.64,379.277 1537.5,382.5C 1516.58,383.488 1495.58,383.821 1474.5,383.5C 1473.36,381.9 1472.19,380.233 1471,378.5C 1470.52,379.448 1470.35,380.448 1470.5,381.5C 1460.89,382.808 1451.06,383.475 1441,383.5C 1430.94,383.475 1421.11,382.808 1411.5,381.5C 1411.5,375.167 1411.5,368.833 1411.5,362.5 Z"/></g>
<g><path style="opacity:0.962" fill="#05cbe4" d="M 1615.5,362.5 C 1660.83,362.5 1706.17,362.5 1751.5,362.5C 1751.5,366.833 1751.5,371.167 1751.5,375.5C 1726.83,375.5 1702.17,375.5 1677.5,375.5C 1677.5,382.5 1677.5,389.5 1677.5,396.5C 1676.52,392.366 1676.18,388.032 1676.5,383.5C 1656.5,383.5 1636.5,383.5 1616.5,383.5C 1616.77,385.099 1616.43,386.432 1615.5,387.5C 1615.5,379.167 1615.5,370.833 1615.5,362.5 Z"/></g>
<g><path style="opacity:0.987" fill="#05cbe5" d="M 1835.5,363.5 C 1871,362.502 1906.66,362.168 1942.5,362.5C 1945.29,369.114 1946.96,376.114 1947.5,383.5C 1926.5,383.5 1905.5,383.5 1884.5,383.5C 1881.54,380.049 1877.87,377.549 1873.5,376C 1860.83,371.721 1848.16,367.555 1835.5,363.5 Z"/></g>
<g><path style="opacity:0.972" fill="#05cbe4" d="M 1981.5,362.5 C 2026.83,362.5 2072.17,362.5 2117.5,362.5C 2117.5,366.833 2117.5,371.167 2117.5,375.5C 2092.5,375.5 2067.5,375.5 2042.5,375.5C 2042.5,378.167 2042.5,380.833 2042.5,383.5C 2022.17,383.5 2001.83,383.5 1981.5,383.5C 1981.5,376.5 1981.5,369.5 1981.5,362.5 Z"/></g>
<g><path style="opacity:0.99" fill="#05cbe5" d="M 2392.5,362.5 C 2440.34,362.168 2488,362.501 2535.5,363.5C 2528.21,367.601 2520.54,370.935 2512.5,373.5C 2514.53,376.518 2516.53,379.518 2518.5,382.5C 2497.58,383.488 2476.58,383.821 2455.5,383.5C 2453.86,382.251 2452.7,380.584 2452,378.5C 2451.5,381.482 2451.34,384.482 2451.5,387.5C 2450.57,386.432 2450.23,385.099 2450.5,383.5C 2431.17,383.5 2411.83,383.5 2392.5,383.5C 2392.5,376.5 2392.5,369.5 2392.5,362.5 Z"/></g>
<g><path style="opacity:0.99" fill="#05cbe5" d="M 2587.5,362.5 C 2608.73,361.862 2629.73,362.529 2650.5,364.5C 2651.9,370.695 2653.9,376.695 2656.5,382.5C 2634.58,383.489 2612.58,383.822 2590.5,383.5C 2588.53,376.675 2587.53,369.675 2587.5,362.5 Z"/></g>
<g><path style="opacity:0.993" fill="#05cbe5" d="M 24.5,375.5 C 53.8333,376.167 83.1667,376.833 112.5,377.5C 104.901,391.192 96.9008,404.692 88.5,418C 92.5673,423.974 96.2339,430.141 99.5,436.5C 69.5,436.5 39.5,436.5 9.5,436.5C 6.65318,430.794 3.31985,425.461 -0.5,420.5C -0.5,419.167 -0.5,417.833 -0.5,416.5C 8.08441,403 16.4177,389.333 24.5,375.5 Z"/></g>
<g><path style="opacity:0.958" fill="#05cbe5" d="M 218.5,375.5 C 245.812,400.982 275.146,423.816 306.5,444C 260.719,428.113 218.386,405.946 179.5,377.5C 192.5,376.833 205.5,376.167 218.5,375.5 Z"/></g>
<g><path style="opacity:0.961" fill="#05cae5" d="M 438.5,375.5 C 442.442,375.875 446.109,376.875 449.5,378.5C 447.195,400.359 442.862,421.692 436.5,442.5C 428.903,440.533 420.903,439.866 412.5,440.5C 421.478,418.889 430.145,397.223 438.5,375.5 Z"/></g>
<g><path style="opacity:0.992" fill="#05cbe5" d="M 644.5,375.5 C 652.986,389.507 661.319,403.674 669.5,418C 666.443,424.627 662.777,430.794 658.5,436.5C 628.167,436.5 597.833,436.5 567.5,436.5C 571.281,430.444 574.948,424.277 578.5,418C 570.362,404.221 562.362,390.388 554.5,376.5C 584.671,376.831 614.671,376.498 644.5,375.5 Z"/></g>
<g><path style="opacity:0.991" fill="#06c4e9" d="M 743.5,381.5 C 765.475,383.489 787.808,384.156 810.5,383.5C 806.651,390.544 802.318,397.211 797.5,403.5C 774.833,403.5 752.167,403.5 729.5,403.5C 733.67,395.82 738.337,388.487 743.5,381.5 Z"/></g>
<g><path style="opacity:0.996" fill="#06c4e9" d="M 990.5,378.5 C 990.5,386.833 990.5,395.167 990.5,403.5C 970.167,403.5 949.833,403.5 929.5,403.5C 929.5,398.167 929.5,392.833 929.5,387.5C 930.434,386.432 930.768,385.099 930.5,383.5C 950.167,383.5 969.833,383.5 989.5,383.5C 989.216,381.585 989.549,379.919 990.5,378.5 Z"/></g>
<g><path style="opacity:0.993" fill="#06c5e9" d="M 1109.5,378.5 C 1110.45,379.919 1110.78,381.585 1110.5,383.5C 1153.67,383.168 1196.67,383.501 1239.5,384.5C 1230.7,387.078 1221.7,388.578 1212.5,389C 1197.84,389.5 1183.17,389.667 1168.5,389.5C 1168.5,394.167 1168.5,398.833 1168.5,403.5C 1149.17,403.5 1129.83,403.5 1110.5,403.5C 1110.74,402.209 1110.4,401.209 1109.5,400.5C 1109.5,393.167 1109.5,385.833 1109.5,378.5 Z"/></g>
<g><path style="opacity:0.994" fill="#06c4e9" d="M 1411.5,381.5 C 1421.11,382.808 1430.94,383.475 1441,383.5C 1451.06,383.475 1460.89,382.808 1470.5,381.5C 1470.5,388.833 1470.5,396.167 1470.5,403.5C 1451.17,403.5 1431.83,403.5 1412.5,403.5C 1412.74,402.209 1412.4,401.209 1411.5,400.5C 1411.5,394.167 1411.5,387.833 1411.5,381.5 Z"/></g>
<g><path style="opacity:0.992" fill="#06c4e9" d="M 1537.5,382.5 C 1542.41,389.32 1547.08,396.32 1551.5,403.5C 1529.83,403.5 1508.17,403.5 1486.5,403.5C 1482.01,397.201 1478.01,390.534 1474.5,383.5C 1495.58,383.821 1516.58,383.488 1537.5,382.5 Z"/></g>
<g><path style="opacity:0.991" fill="#06c4e9" d="M 1677.5,396.5 C 1677.5,397.833 1677.5,399.167 1677.5,400.5C 1676.6,401.209 1676.26,402.209 1676.5,403.5C 1656.5,403.5 1636.5,403.5 1616.5,403.5C 1616.74,402.209 1616.4,401.209 1615.5,400.5C 1615.5,396.167 1615.5,391.833 1615.5,387.5C 1616.43,386.432 1616.77,385.099 1616.5,383.5C 1636.5,383.5 1656.5,383.5 1676.5,383.5C 1676.18,388.032 1676.52,392.366 1677.5,396.5 Z"/></g>
<g><path style="opacity:0.993" fill="#06c4e9" d="M 1884.5,383.5 C 1905.5,383.5 1926.5,383.5 1947.5,383.5C 1947.76,390.224 1947.42,396.891 1946.5,403.5C 1927.09,403.82 1907.76,403.487 1888.5,402.5C 1889.73,395.635 1888.39,389.302 1884.5,383.5 Z"/></g>
<g><path style="opacity:0.989" fill="#06c4e9" d="M 1981.5,383.5 C 2001.83,383.5 2022.17,383.5 2042.5,383.5C 2042.5,390.833 2042.5,398.167 2042.5,405.5C 2022.73,403.531 2002.73,402.864 1982.5,403.5C 1982.74,402.209 1982.4,401.209 1981.5,400.5C 1981.5,394.833 1981.5,389.167 1981.5,383.5 Z"/></g>
<g><path style="opacity:0.997" fill="#06c4ea" d="M 2343.5,384.5 C 2345.9,390.696 2347.9,397.029 2349.5,403.5C 2285.17,403.5 2220.83,403.5 2156.5,403.5C 2157.94,397.297 2159.94,391.297 2162.5,385.5C 2222.76,384.504 2283.1,384.171 2343.5,384.5 Z"/></g>
<g><path style="opacity:0.991" fill="#06c4e9" d="M 2392.5,383.5 C 2411.83,383.5 2431.17,383.5 2450.5,383.5C 2450.23,385.099 2450.57,386.432 2451.5,387.5C 2451.5,394.167 2451.5,400.833 2451.5,407.5C 2450.57,406.432 2450.23,405.099 2450.5,403.5C 2431.17,403.5 2411.83,403.5 2392.5,403.5C 2392.5,396.833 2392.5,390.167 2392.5,383.5 Z"/></g>
<g><path style="opacity:0.992" fill="#06c4e9" d="M 2518.5,382.5 C 2522.83,389.167 2527.17,395.833 2531.5,402.5C 2510.17,403.167 2488.83,403.833 2467.5,404.5C 2462.74,397.996 2458.74,390.996 2455.5,383.5C 2476.58,383.821 2497.58,383.488 2518.5,382.5 Z"/></g>
<g><path style="opacity:0.992" fill="#06c4ea" d="M 2656.5,382.5 C 2660.99,390.495 2666.66,397.495 2673.5,403.5C 2648.17,403.5 2622.83,403.5 2597.5,403.5C 2594.4,397.198 2592.06,390.531 2590.5,383.5C 2612.58,383.822 2634.58,383.489 2656.5,382.5 Z"/></g>
<g><path style="opacity:1" fill="#06c4e9" d="M 2796.5,378.5 C 2797.45,379.919 2797.78,381.585 2797.5,383.5C 2818.24,383.821 2838.91,383.488 2859.5,382.5C 2859.5,388.5 2859.5,394.5 2859.5,400.5C 2858.6,401.209 2858.26,402.209 2858.5,403.5C 2837.83,403.5 2817.17,403.5 2796.5,403.5C 2796.5,395.167 2796.5,386.833 2796.5,378.5 Z"/></g>
<g><path style="opacity:1" fill="#06c4e9" d="M 3003.5,383.5 C 3003.5,390.167 3003.5,396.833 3003.5,403.5C 2982.83,403.5 2962.17,403.5 2941.5,403.5C 2941.5,396.833 2941.5,390.167 2941.5,383.5C 2962.17,383.5 2982.83,383.5 3003.5,383.5 Z"/></g>
<g><path style="opacity:0.983" fill="#06c0ec" d="M 1411.5,400.5 C 1412.4,401.209 1412.74,402.209 1412.5,403.5C 1431.83,403.5 1451.17,403.5 1470.5,403.5C 1470.5,405.833 1470.5,408.167 1470.5,410.5C 1451.17,410.5 1431.83,410.5 1412.5,410.5C 1412.77,412.099 1412.43,413.432 1411.5,414.5C 1411.5,409.833 1411.5,405.167 1411.5,400.5 Z"/></g>
<g><path style="opacity:0.991" fill="#05c0ec" d="M 1615.5,400.5 C 1616.4,401.209 1616.74,402.209 1616.5,403.5C 1636.5,403.5 1656.5,403.5 1676.5,403.5C 1676.5,405.833 1676.5,408.167 1676.5,410.5C 1656.5,410.5 1636.5,410.5 1616.5,410.5C 1616.78,408.585 1616.45,406.919 1615.5,405.5C 1615.5,403.833 1615.5,402.167 1615.5,400.5 Z"/></g>
<g><path style="opacity:0.981" fill="#06bdef" d="M 1677.5,400.5 C 1677.5,404.833 1677.5,409.167 1677.5,413.5C 1703.83,413.5 1730.17,413.5 1756.5,413.5C 1756.5,415.833 1756.5,418.167 1756.5,420.5C 1755.6,421.209 1755.26,422.209 1755.5,423.5C 1709.17,423.5 1662.83,423.5 1616.5,423.5C 1616.77,425.099 1616.43,426.432 1615.5,427.5C 1615.5,420.167 1615.5,412.833 1615.5,405.5C 1616.45,406.919 1616.78,408.585 1616.5,410.5C 1636.5,410.5 1656.5,410.5 1676.5,410.5C 1676.5,408.167 1676.5,405.833 1676.5,403.5C 1676.26,402.209 1676.6,401.209 1677.5,400.5 Z"/></g>
<g><path style="opacity:0.986" fill="#05c0ec" d="M 1981.5,400.5 C 1982.4,401.209 1982.74,402.209 1982.5,403.5C 2002.73,402.864 2022.73,403.531 2042.5,405.5C 2042.5,406.167 2042.5,406.833 2042.5,407.5C 2041.6,408.209 2041.26,409.209 2041.5,410.5C 2021.83,410.5 2002.17,410.5 1982.5,410.5C 1982.77,412.099 1982.43,413.432 1981.5,414.5C 1981.5,409.833 1981.5,405.167 1981.5,400.5 Z"/></g>
<g><path style="opacity:0.982" fill="#06c1ec" d="M 2762.5,427.5 C 2761.57,426.432 2761.23,425.099 2761.5,423.5C 2761.5,419.167 2761.5,414.833 2761.5,410.5C 2752.32,410.827 2743.32,410.493 2734.5,409.5C 2739.26,406.588 2743.93,403.421 2748.5,400C 2752.68,395.651 2757.01,391.485 2761.5,387.5C 2762.5,400.817 2762.83,414.15 2762.5,427.5 Z"/></g>
<g><path style="opacity:0.996" fill="#06c0ec" d="M 729.5,403.5 C 752.167,403.5 774.833,403.5 797.5,403.5C 796.431,405.969 795.098,408.302 793.5,410.5C 770.661,410.831 747.994,410.497 725.5,409.5C 726.34,407.147 727.674,405.147 729.5,403.5 Z"/></g>
<g><path style="opacity:0.995" fill="#06c0ec" d="M 929.5,403.5 C 949.833,403.5 970.167,403.5 990.5,403.5C 990.5,406.833 990.5,410.167 990.5,413.5C 989.596,412.791 989.263,411.791 989.5,410.5C 969.5,410.5 949.5,410.5 929.5,410.5C 929.5,408.167 929.5,405.833 929.5,403.5 Z"/></g>
<g><path style="opacity:0.999" fill="#06c0ec" d="M 1109.5,400.5 C 1110.4,401.209 1110.74,402.209 1110.5,403.5C 1129.83,403.5 1149.17,403.5 1168.5,403.5C 1168.5,405.833 1168.5,408.167 1168.5,410.5C 1148.83,410.5 1129.17,410.5 1109.5,410.5C 1109.5,407.167 1109.5,403.833 1109.5,400.5 Z"/></g>
<g><path style="opacity:0.997" fill="#06c0ec" d="M 1486.5,403.5 C 1508.17,403.5 1529.83,403.5 1551.5,403.5C 1553.52,405.531 1555.19,407.865 1556.5,410.5C 1534.42,410.178 1512.42,410.511 1490.5,411.5C 1488.73,409.062 1487.4,406.395 1486.5,403.5 Z"/></g>
<g><path style="opacity:0.98" fill="#06c1ec" d="M 1828.5,410.5 C 1817.17,410.5 1805.83,410.5 1794.5,410.5C 1798.34,403.484 1802.67,396.817 1807.5,390.5C 1813.89,397.891 1820.89,404.557 1828.5,410.5 Z"/></g>
<g><path style="opacity:0.994" fill="#06c0ec" d="M 1888.5,402.5 C 1907.76,403.487 1927.09,403.82 1946.5,403.5C 1946.67,405.621 1946.34,407.621 1945.5,409.5C 1925.58,410.487 1905.58,410.821 1885.5,410.5C 1887.06,408.046 1888.06,405.38 1888.5,402.5 Z"/></g>
<g><path style="opacity:0.998" fill="#06c0ec" d="M 2156.5,403.5 C 2220.83,403.5 2285.17,403.5 2349.5,403.5C 2350.93,404.78 2351.6,406.447 2351.5,408.5C 2285.77,410.171 2219.77,411.171 2153.5,411.5C 2154.13,408.603 2155.13,405.936 2156.5,403.5 Z"/></g>
<g><path style="opacity:0.965" fill="#06c0ec" d="M 2392.5,403.5 C 2411.83,403.5 2431.17,403.5 2450.5,403.5C 2450.23,405.099 2450.57,406.432 2451.5,407.5C 2451.5,413.167 2451.5,418.833 2451.5,424.5C 2450.83,424.5 2450.5,424.167 2450.5,423.5C 2450.5,419.167 2450.5,414.833 2450.5,410.5C 2431.17,410.5 2411.83,410.5 2392.5,410.5C 2392.5,408.167 2392.5,405.833 2392.5,403.5 Z"/></g>
<g><path style="opacity:0.998" fill="#06c0ec" d="M 2531.5,402.5 C 2533.4,404.619 2535.07,406.953 2536.5,409.5C 2514.58,410.489 2492.58,410.822 2470.5,410.5C 2469.47,408.483 2468.47,406.483 2467.5,404.5C 2488.83,403.833 2510.17,403.167 2531.5,402.5 Z"/></g>
<g><path style="opacity:0.996" fill="#06c0ec" d="M 2597.5,403.5 C 2622.83,403.5 2648.17,403.5 2673.5,403.5C 2676.71,405.265 2679.71,407.265 2682.5,409.5C 2655.5,410.167 2628.5,410.833 2601.5,411.5C 2599.66,409.151 2598.33,406.485 2597.5,403.5 Z"/></g>
<g><path style="opacity:1" fill="#06c0ec" d="M 2859.5,400.5 C 2859.5,405.167 2859.5,409.833 2859.5,414.5C 2858.57,413.432 2858.23,412.099 2858.5,410.5C 2837.83,410.5 2817.17,410.5 2796.5,410.5C 2796.5,408.167 2796.5,405.833 2796.5,403.5C 2817.17,403.5 2837.83,403.5 2858.5,403.5C 2858.26,402.209 2858.6,401.209 2859.5,400.5 Z"/></g>
<g><path style="opacity:1" fill="#06c0ec" d="M 2941.5,403.5 C 2962.17,403.5 2982.83,403.5 3003.5,403.5C 3003.5,405.833 3003.5,408.167 3003.5,410.5C 2982.83,410.5 2962.17,410.5 2941.5,410.5C 2941.5,408.167 2941.5,405.833 2941.5,403.5 Z"/></g>
<g><path style="opacity:0.995" fill="#06bdef" d="M 2042.5,407.5 C 2042.5,409.5 2042.5,411.5 2042.5,413.5C 2068.83,413.5 2095.17,413.5 2121.5,413.5C 2121.5,416.833 2121.5,420.167 2121.5,423.5C 2074.83,423.5 2028.17,423.5 1981.5,423.5C 1981.5,420.5 1981.5,417.5 1981.5,414.5C 1982.43,413.432 1982.77,412.099 1982.5,410.5C 2002.17,410.5 2021.83,410.5 2041.5,410.5C 2041.26,409.209 2041.6,408.209 2042.5,407.5 Z"/></g>
<g><path style="opacity:0.991" fill="#06bdee" d="M 2536.5,409.5 C 2539.25,412.917 2541.59,416.583 2543.5,420.5C 2521.86,422.489 2499.86,423.156 2477.5,422.5C 2475.17,418.5 2472.83,414.5 2470.5,410.5C 2492.58,410.822 2514.58,410.489 2536.5,409.5 Z"/></g>
<g><path style="opacity:0.993" fill="#06bdef" d="M 2682.5,409.5 C 2699.84,416.136 2717.18,416.136 2734.5,409.5C 2743.32,410.493 2752.32,410.827 2761.5,410.5C 2761.5,414.833 2761.5,419.167 2761.5,423.5C 2710.66,423.168 2660,423.501 2609.5,424.5C 2606.08,420.677 2603.42,416.343 2601.5,411.5C 2628.5,410.833 2655.5,410.167 2682.5,409.5 Z"/></g>
<g><path style="opacity:0.981" fill="#06bdef" d="M 725.5,409.5 C 747.994,410.497 770.661,410.831 793.5,410.5C 792.859,411.482 792.193,412.482 791.5,413.5C 824.827,414.5 858.16,414.833 891.5,414.5C 891.5,417.5 891.5,420.5 891.5,423.5C 833.167,423.5 774.833,423.5 716.5,423.5C 719.004,418.485 722.004,413.819 725.5,409.5 Z"/></g>
<g><path style="opacity:0.995" fill="#06bdef" d="M 929.5,410.5 C 949.5,410.5 969.5,410.5 989.5,410.5C 989.263,411.791 989.596,412.791 990.5,413.5C 1016.83,413.5 1043.17,413.5 1069.5,413.5C 1069.5,418.167 1069.5,422.833 1069.5,427.5C 1068.57,426.432 1068.23,425.099 1068.5,423.5C 1022.17,423.5 975.833,423.5 929.5,423.5C 929.5,419.167 929.5,414.833 929.5,410.5 Z"/></g>
<g><path style="opacity:0.999" fill="#06bdef" d="M 1109.5,410.5 C 1129.17,410.5 1148.83,410.5 1168.5,410.5C 1168.5,414.833 1168.5,419.167 1168.5,423.5C 1148.83,423.5 1129.17,423.5 1109.5,423.5C 1109.5,419.167 1109.5,414.833 1109.5,410.5 Z"/></g>
<g><path style="opacity:0.996" fill="#06bdee" d="M 1470.5,410.5 C 1470.5,413.833 1470.5,417.167 1470.5,420.5C 1469.6,421.209 1469.26,422.209 1469.5,423.5C 1450.09,423.82 1430.76,423.487 1411.5,422.5C 1411.5,419.833 1411.5,417.167 1411.5,414.5C 1412.43,413.432 1412.77,412.099 1412.5,410.5C 1431.83,410.5 1451.17,410.5 1470.5,410.5 Z"/></g>
<g><path style="opacity:0.991" fill="#06bdef" d="M 1556.5,410.5 C 1559.53,414.205 1562.19,418.205 1564.5,422.5C 1542.5,423.167 1520.5,423.833 1498.5,424.5C 1495.6,420.37 1492.93,416.037 1490.5,411.5C 1512.42,410.511 1534.42,410.178 1556.5,410.5 Z"/></g>
<g><path style="opacity:0.983" fill="#06bdef" d="M 1945.5,409.5 C 1944.8,414.921 1943.14,419.921 1940.5,424.5C 1889.34,423.501 1838,423.168 1786.5,423.5C 1788.92,418.999 1791.58,414.666 1794.5,410.5C 1805.83,410.5 1817.17,410.5 1828.5,410.5C 1833.48,412.989 1838.48,415.489 1843.5,418C 1856.75,423.468 1869.42,422.468 1881.5,415C 1883.07,413.603 1884.4,412.103 1885.5,410.5C 1905.58,410.821 1925.58,410.487 1945.5,409.5 Z"/></g>
<g><path style="opacity:0.998" fill="#06bdee" d="M 2351.5,408.5 C 2353.54,412.94 2355.2,417.607 2356.5,422.5C 2287.66,422.833 2219,422.499 2150.5,421.5C 2151.1,418.032 2152.1,414.699 2153.5,411.5C 2219.77,411.171 2285.77,410.171 2351.5,408.5 Z"/></g>
<g><path style="opacity:0.999" fill="#06bdee" d="M 2392.5,410.5 C 2411.83,410.5 2431.17,410.5 2450.5,410.5C 2450.5,414.833 2450.5,419.167 2450.5,423.5C 2431.17,423.5 2411.83,423.5 2392.5,423.5C 2392.5,419.167 2392.5,414.833 2392.5,410.5 Z"/></g>
<g><path style="opacity:1" fill="#06bdee" d="M 2796.5,410.5 C 2817.17,410.5 2837.83,410.5 2858.5,410.5C 2858.23,412.099 2858.57,413.432 2859.5,414.5C 2859.5,417.5 2859.5,420.5 2859.5,423.5C 2838.5,423.5 2817.5,423.5 2796.5,423.5C 2796.5,419.167 2796.5,414.833 2796.5,410.5 Z"/></g>
<g><path style="opacity:1" fill="#06bdee" d="M 2941.5,410.5 C 2962.17,410.5 2982.83,410.5 3003.5,410.5C 3003.5,414.833 3003.5,419.167 3003.5,423.5C 2982.83,423.5 2962.17,423.5 2941.5,423.5C 2941.5,419.167 2941.5,414.833 2941.5,410.5 Z"/></g>
<g><path style="opacity:0.98" fill="#07b9f1" d="M 1470.5,420.5 C 1470.5,428.5 1470.5,436.5 1470.5,444.5C 1469.55,443.081 1469.22,441.415 1469.5,439.5C 1449.93,438.865 1430.6,439.532 1411.5,441.5C 1411.5,435.167 1411.5,428.833 1411.5,422.5C 1430.76,423.487 1450.09,423.82 1469.5,423.5C 1469.26,422.209 1469.6,421.209 1470.5,420.5 Z"/></g>
<g><path style="opacity:0.988" fill="#07b9f1" d="M 1756.5,420.5 C 1756.5,426.833 1756.5,433.167 1756.5,439.5C 1709.83,439.5 1663.17,439.5 1616.5,439.5C 1616.78,441.415 1616.45,443.081 1615.5,444.5C 1615.5,438.833 1615.5,433.167 1615.5,427.5C 1616.43,426.432 1616.77,425.099 1616.5,423.5C 1662.83,423.5 1709.17,423.5 1755.5,423.5C 1755.26,422.209 1755.6,421.209 1756.5,420.5 Z"/></g>
<g><path style="opacity:0.999" fill="#07b9f1" d="M 716.5,423.5 C 774.833,423.5 833.167,423.5 891.5,423.5C 891.5,428.833 891.5,434.167 891.5,439.5C 829.833,439.5 768.167,439.5 706.5,439.5C 709.336,433.822 712.669,428.489 716.5,423.5 Z"/></g>
<g><path style="opacity:0.997" fill="#07b9f1" d="M 929.5,423.5 C 975.833,423.5 1022.17,423.5 1068.5,423.5C 1068.23,425.099 1068.57,426.432 1069.5,427.5C 1069.5,431.5 1069.5,435.5 1069.5,439.5C 1022.83,439.5 976.167,439.5 929.5,439.5C 929.5,434.167 929.5,428.833 929.5,423.5 Z"/></g>
<g><path style="opacity:0.98" fill="#07b9f1" d="M 1109.5,423.5 C 1129.17,423.5 1148.83,423.5 1168.5,423.5C 1168.5,428.833 1168.5,434.167 1168.5,439.5C 1149.17,439.5 1129.83,439.5 1110.5,439.5C 1110.78,441.415 1110.45,443.081 1109.5,444.5C 1109.5,437.5 1109.5,430.5 1109.5,423.5 Z"/></g>
<g><path style="opacity:0.993" fill="#07b9f1" d="M 1564.5,422.5 C 1568.15,427.796 1571.82,433.129 1575.5,438.5C 1552.91,439.489 1530.24,439.822 1507.5,439.5C 1504.14,434.784 1501.14,429.784 1498.5,424.5C 1520.5,423.833 1542.5,423.167 1564.5,422.5 Z"/></g>
<g><path style="opacity:0.997" fill="#07b9f1" d="M 1786.5,423.5 C 1838,423.168 1889.34,423.501 1940.5,424.5C 1938.53,430.446 1935.53,435.779 1931.5,440.5C 1881.67,439.501 1831.67,439.168 1781.5,439.5C 1780.19,438.855 1779.19,437.855 1778.5,436.5C 1781.19,432.149 1783.86,427.816 1786.5,423.5 Z"/></g>
<g><path style="opacity:0.997" fill="#07b9f1" d="M 1981.5,423.5 C 2028.17,423.5 2074.83,423.5 2121.5,423.5C 2121.5,428.833 2121.5,434.167 2121.5,439.5C 2074.83,439.5 2028.17,439.5 1981.5,439.5C 1981.5,434.167 1981.5,428.833 1981.5,423.5 Z"/></g>
<g><path style="opacity:0.992" fill="#07b9f1" d="M 2150.5,421.5 C 2219,422.499 2287.66,422.833 2356.5,422.5C 2358.7,428.433 2360.7,434.433 2362.5,440.5C 2342.01,438.841 2321.68,439.174 2301.5,441.5C 2300.01,435.868 2298.68,430.201 2297.5,424.5C 2268.16,424.167 2238.83,424.5 2209.5,425.5C 2208,430.671 2206.33,435.671 2204.5,440.5C 2184.5,439.833 2164.5,439.167 2144.5,438.5C 2145.73,432.468 2147.73,426.801 2150.5,421.5 Z"/></g>
<g><path style="opacity:1" fill="#07b9f1" d="M 2392.5,423.5 C 2411.83,423.5 2431.17,423.5 2450.5,423.5C 2450.5,424.167 2450.83,424.5 2451.5,424.5C 2451.5,432.833 2451.5,441.167 2451.5,449.5C 2450.57,448.432 2450.23,447.099 2450.5,445.5C 2450.5,443.5 2450.5,441.5 2450.5,439.5C 2431.17,439.5 2411.83,439.5 2392.5,439.5C 2392.5,434.167 2392.5,428.833 2392.5,423.5 Z"/></g>
<g><path style="opacity:0.994" fill="#07b9f1" d="M 2543.5,420.5 C 2548.19,426.536 2552.52,432.869 2556.5,439.5C 2533.66,439.169 2510.99,439.503 2488.5,440.5C 2484.85,434.536 2481.18,428.536 2477.5,422.5C 2499.86,423.156 2521.86,422.489 2543.5,420.5 Z"/></g>
<g><path style="opacity:0.999" fill="#07b9f1" d="M 2761.5,423.5 C 2761.23,425.099 2761.57,426.432 2762.5,427.5C 2762.5,428.167 2762.5,428.833 2762.5,429.5C 2761.52,432.625 2761.19,435.958 2761.5,439.5C 2715.17,439.5 2668.83,439.5 2622.5,439.5C 2617.82,434.821 2613.49,429.821 2609.5,424.5C 2660,423.501 2710.66,423.168 2761.5,423.5 Z"/></g>
<g><path style="opacity:0.986" fill="#07b9f1" d="M 2796.5,423.5 C 2817.5,423.5 2838.5,423.5 2859.5,423.5C 2859.5,426.833 2859.5,430.167 2859.5,433.5C 2858.54,435.265 2858.21,437.265 2858.5,439.5C 2837.6,438.863 2816.93,439.53 2796.5,441.5C 2796.5,435.5 2796.5,429.5 2796.5,423.5 Z"/></g>
<g><path style="opacity:1" fill="#07b9f1" d="M 2941.5,423.5 C 2962.17,423.5 2982.83,423.5 3003.5,423.5C 3003.5,428.833 3003.5,434.167 3003.5,439.5C 2982.83,439.5 2962.17,439.5 2941.5,439.5C 2941.5,434.167 2941.5,428.833 2941.5,423.5 Z"/></g>
<g><path style="opacity:0.97" fill="#07b6f4" d="M 2762.5,429.5 C 2762.5,438.167 2762.5,446.833 2762.5,455.5C 2761.52,452.375 2761.19,449.042 2761.5,445.5C 2718.17,445.333 2674.83,445.5 2631.5,446C 2632.06,446.383 2632.39,446.883 2632.5,447.5C 2628.87,445.206 2625.54,442.54 2622.5,439.5C 2668.83,439.5 2715.17,439.5 2761.5,439.5C 2761.19,435.958 2761.52,432.625 2762.5,429.5 Z"/></g>
<g><path style="opacity:0.97" fill="#07b6f4" d="M 2859.5,433.5 C 2859.5,438.833 2859.5,444.167 2859.5,449.5C 2858.57,448.432 2858.23,447.099 2858.5,445.5C 2837.76,445.821 2817.09,445.488 2796.5,444.5C 2796.5,443.5 2796.5,442.5 2796.5,441.5C 2816.93,439.53 2837.6,438.863 2858.5,439.5C 2858.21,437.265 2858.54,435.265 2859.5,433.5 Z"/></g>
<g><path style="opacity:0.995" fill="#05c8e8" d="M 9.5,436.5 C 39.5,436.5 69.5,436.5 99.5,436.5C 100.89,437.899 101.89,439.566 102.5,441.5C 87.5727,440.841 72.5727,440.508 57.5,440.5C 42.4844,440.501 27.8178,441.167 13.5,442.5C 12.1798,440.537 10.8465,438.537 9.5,436.5 Z"/></g>
<g><path style="opacity:0.995" fill="#05c8e8" d="M 567.5,436.5 C 597.833,436.5 628.167,436.5 658.5,436.5C 658.267,438.062 657.6,439.395 656.5,440.5C 626.329,440.831 596.329,440.498 566.5,439.5C 566.557,438.391 566.89,437.391 567.5,436.5 Z"/></g>
<g><path style="opacity:0.998" fill="#07b6f4" d="M 706.5,439.5 C 768.167,439.5 829.833,439.5 891.5,439.5C 891.5,441.5 891.5,443.5 891.5,445.5C 828.5,445.5 765.5,445.5 702.5,445.5C 703.34,443.147 704.674,441.147 706.5,439.5 Z"/></g>
<g><path style="opacity:0.996" fill="#07b6f4" d="M 929.5,439.5 C 976.167,439.5 1022.83,439.5 1069.5,439.5C 1069.5,440.167 1069.5,440.833 1069.5,441.5C 1068.57,442.568 1068.23,443.901 1068.5,445.5C 1022.5,445.5 976.5,445.5 930.5,445.5C 930.768,447.099 930.434,448.432 929.5,449.5C 929.5,446.167 929.5,442.833 929.5,439.5 Z"/></g>
<g><path style="opacity:0.987" fill="#07b6f4" d="M 1168.5,439.5 C 1168.5,441.5 1168.5,443.5 1168.5,445.5C 1149.17,445.5 1129.83,445.5 1110.5,445.5C 1110.77,447.099 1110.43,448.432 1109.5,449.5C 1109.5,447.833 1109.5,446.167 1109.5,444.5C 1110.45,443.081 1110.78,441.415 1110.5,439.5C 1129.83,439.5 1149.17,439.5 1168.5,439.5 Z"/></g>
<g><path style="opacity:0.999" fill="#07b6f4" d="M 1470.5,444.5 C 1470.5,444.833 1470.5,445.167 1470.5,445.5C 1450.76,445.821 1431.09,445.487 1411.5,444.5C 1411.5,443.5 1411.5,442.5 1411.5,441.5C 1430.6,439.532 1449.93,438.865 1469.5,439.5C 1469.22,441.415 1469.55,443.081 1470.5,444.5 Z"/></g>
<g><path style="opacity:0.994" fill="#07b6f4" d="M 1575.5,438.5 C 1577.1,440.698 1578.43,443.031 1579.5,445.5C 1556.66,445.169 1533.99,445.503 1511.5,446.5C 1509.41,444.664 1508.08,442.331 1507.5,439.5C 1530.24,439.822 1552.91,439.489 1575.5,438.5 Z"/></g>
<g><path style="opacity:0.994" fill="#07b6f4" d="M 1756.5,439.5 C 1756.5,441.5 1756.5,443.5 1756.5,445.5C 1709.5,445.5 1662.5,445.5 1615.5,445.5C 1615.5,445.167 1615.5,444.833 1615.5,444.5C 1616.45,443.081 1616.78,441.415 1616.5,439.5C 1663.17,439.5 1709.83,439.5 1756.5,439.5 Z"/></g>
<g><path style="opacity:0.997" fill="#06b6f4" d="M 1781.5,439.5 C 1831.67,439.168 1881.67,439.501 1931.5,440.5C 1930.17,442.5 1928.5,444.167 1926.5,445.5C 1880.5,445.5 1834.5,445.5 1788.5,445.5C 1785.55,444.219 1783.22,442.219 1781.5,439.5 Z"/></g>
<g><path style="opacity:0.999" fill="#07b6f4" d="M 1981.5,439.5 C 2028.17,439.5 2074.83,439.5 2121.5,439.5C 2121.5,441.5 2121.5,443.5 2121.5,445.5C 2075.17,445.5 2028.83,445.5 1982.5,445.5C 1982.77,443.901 1982.43,442.568 1981.5,441.5C 1981.5,440.833 1981.5,440.167 1981.5,439.5 Z"/></g>
<g><path style="opacity:0.994" fill="#06b6f4" d="M 2144.5,438.5 C 2164.5,439.167 2184.5,439.833 2204.5,440.5C 2204.57,441.959 2204.23,443.292 2203.5,444.5C 2182.83,445.167 2162.17,445.833 2141.5,446.5C 2142.13,443.603 2143.13,440.936 2144.5,438.5 Z"/></g>
<g><path style="opacity:0.992" fill="#06b6f4" d="M 2362.5,440.5 C 2363.54,441.93 2364.2,443.597 2364.5,445.5C 2344.17,445.5 2323.83,445.5 2303.5,445.5C 2302.66,444.329 2301.99,442.995 2301.5,441.5C 2321.68,439.174 2342.01,438.841 2362.5,440.5 Z"/></g>
<g><path style="opacity:1" fill="#06b6f4" d="M 2392.5,439.5 C 2411.83,439.5 2431.17,439.5 2450.5,439.5C 2450.5,441.5 2450.5,443.5 2450.5,445.5C 2431.5,445.5 2412.5,445.5 2393.5,445.5C 2393.77,447.099 2393.43,448.432 2392.5,449.5C 2392.5,446.167 2392.5,442.833 2392.5,439.5 Z"/></g>
<g><path style="opacity:0.992" fill="#07b6f4" d="M 2556.5,439.5 C 2558.19,441.205 2559.53,443.205 2560.5,445.5C 2537.43,445.178 2514.43,445.511 2491.5,446.5C 2490.47,444.483 2489.47,442.483 2488.5,440.5C 2510.99,439.503 2533.66,439.169 2556.5,439.5 Z"/></g>
<g><path style="opacity:1" fill="#07b6f4" d="M 2941.5,439.5 C 2962.17,439.5 2982.83,439.5 3003.5,439.5C 3003.5,441.5 3003.5,443.5 3003.5,445.5C 2982.83,445.5 2962.17,445.5 2941.5,445.5C 2941.5,443.5 2941.5,441.5 2941.5,439.5 Z"/></g>
<g><path style="opacity:0.995" fill="#06c4ea" d="M 102.5,441.5 C 113.404,458.965 124.07,476.631 134.5,494.5C 104.5,495.167 74.5,495.833 44.5,496.5C 34.1389,478.483 23.8056,460.483 13.5,442.5C 27.8178,441.167 42.4844,440.501 57.5,440.5C 72.5727,440.508 87.5727,440.841 102.5,441.5 Z"/></g>
<g><path style="opacity:0.987" fill="#06c4ea" d="M 412.5,440.5 C 420.903,439.866 428.903,440.533 436.5,442.5C 431.967,460.301 426.967,477.967 421.5,495.5C 409.5,495.5 397.5,495.5 385.5,495.5C 394.248,477.005 403.248,458.672 412.5,440.5 Z"/></g>
<g><path style="opacity:0.993" fill="#06c4ea" d="M 566.5,439.5 C 596.329,440.498 626.329,440.831 656.5,440.5C 645.737,459.035 634.737,477.368 623.5,495.5C 593.481,496.159 563.815,495.492 534.5,493.5C 544.678,475.134 555.344,457.134 566.5,439.5 Z"/></g>
<g><path style="opacity:0.997" fill="#07b3f6" d="M 1069.5,441.5 C 1069.5,449.167 1069.5,456.833 1069.5,464.5C 1022.83,464.5 976.167,464.5 929.5,464.5C 929.5,459.5 929.5,454.5 929.5,449.5C 930.434,448.432 930.768,447.099 930.5,445.5C 976.5,445.5 1022.5,445.5 1068.5,445.5C 1068.23,443.901 1068.57,442.568 1069.5,441.5 Z"/></g>
<g><path style="opacity:0.996" fill="#07b3f6" d="M 1981.5,441.5 C 1982.43,442.568 1982.77,443.901 1982.5,445.5C 2028.83,445.5 2075.17,445.5 2121.5,445.5C 2121.5,451.833 2121.5,458.167 2121.5,464.5C 2074.83,464.5 2028.17,464.5 1981.5,464.5C 1981.5,456.833 1981.5,449.167 1981.5,441.5 Z"/></g>
<g><path style="opacity:0.984" fill="#07b3f6" d="M 1411.5,444.5 C 1431.09,445.487 1450.76,445.821 1470.5,445.5C 1470.5,451.833 1470.5,458.167 1470.5,464.5C 1450.83,464.5 1431.17,464.5 1411.5,464.5C 1411.5,457.833 1411.5,451.167 1411.5,444.5 Z"/></g>
<g><path style="opacity:0.989" fill="#07b3f6" d="M 2203.5,444.5 C 2201.83,451.167 2200.17,457.833 2198.5,464.5C 2177.5,464.5 2156.5,464.5 2135.5,464.5C 2137.3,458.433 2139.3,452.433 2141.5,446.5C 2162.17,445.833 2182.83,445.167 2203.5,444.5 Z"/></g>
<g><path style="opacity:0.984" fill="#07b3f6" d="M 2796.5,444.5 C 2817.09,445.488 2837.76,445.821 2858.5,445.5C 2858.23,447.099 2858.57,448.432 2859.5,449.5C 2859.5,454.5 2859.5,459.5 2859.5,464.5C 2838.5,464.5 2817.5,464.5 2796.5,464.5C 2796.5,457.833 2796.5,451.167 2796.5,444.5 Z"/></g>
<g><path style="opacity:0.998" fill="#07b3f6" d="M 702.5,445.5 C 765.5,445.5 828.5,445.5 891.5,445.5C 891.5,451.833 891.5,458.167 891.5,464.5C 824.497,464.833 757.497,464.5 690.5,463.5C 694.167,457.187 698.167,451.187 702.5,445.5 Z"/></g>
<g><path style="opacity:0.988" fill="#07b3f6" d="M 1168.5,445.5 C 1168.5,451.833 1168.5,458.167 1168.5,464.5C 1148.83,464.5 1129.17,464.5 1109.5,464.5C 1109.5,459.5 1109.5,454.5 1109.5,449.5C 1110.43,448.432 1110.77,447.099 1110.5,445.5C 1129.83,445.5 1149.17,445.5 1168.5,445.5 Z"/></g>
<g><path style="opacity:0.989" fill="#07b3f6" d="M 1579.5,445.5 C 1584.3,451.079 1588.63,457.079 1592.5,463.5C 1568.84,464.666 1545.17,464.833 1521.5,464C 1517.51,458.519 1514.18,452.685 1511.5,446.5C 1533.99,445.503 1556.66,445.169 1579.5,445.5 Z"/></g>
<g><path style="opacity:0.99" fill="#07b3f6" d="M 1615.5,445.5 C 1662.5,445.5 1709.5,445.5 1756.5,445.5C 1756.5,451.833 1756.5,458.167 1756.5,464.5C 1709.5,464.5 1662.5,464.5 1615.5,464.5C 1615.5,458.167 1615.5,451.833 1615.5,445.5 Z"/></g>
<g><path style="opacity:0.984" fill="#07b2f6" d="M 1788.5,445.5 C 1834.5,445.5 1880.5,445.5 1926.5,445.5C 1914.63,458.274 1899.96,466.107 1882.5,469C 1853.46,474.375 1826.13,469.709 1800.5,455C 1796.03,452.35 1792.03,449.183 1788.5,445.5 Z"/></g>
<g><path style="opacity:0.991" fill="#07b3f6" d="M 2303.5,445.5 C 2323.83,445.5 2344.17,445.5 2364.5,445.5C 2366.9,451.696 2368.9,458.029 2370.5,464.5C 2349.83,464.667 2329.16,464.5 2308.5,464C 2306.29,457.989 2304.62,451.822 2303.5,445.5 Z"/></g>
<g><path style="opacity:1" fill="#07b3f6" d="M 2450.5,445.5 C 2450.23,447.099 2450.57,448.432 2451.5,449.5C 2451.5,454.5 2451.5,459.5 2451.5,464.5C 2431.83,464.5 2412.17,464.5 2392.5,464.5C 2392.5,459.5 2392.5,454.5 2392.5,449.5C 2393.43,448.432 2393.77,447.099 2393.5,445.5C 2412.5,445.5 2431.5,445.5 2450.5,445.5 Z"/></g>
<g><path style="opacity:0.994" fill="#07b3f6" d="M 2560.5,445.5 C 2564.93,451.513 2569.27,457.679 2573.5,464C 2549.49,464.833 2525.49,464.666 2501.5,463.5C 2498.14,457.816 2494.81,452.149 2491.5,446.5C 2514.43,445.511 2537.43,445.178 2560.5,445.5 Z"/></g>
<g><path style="opacity:0.984" fill="#07b2f6" d="M 2762.5,455.5 C 2734.79,469.967 2705.45,474.133 2674.5,468C 2658.68,464.588 2644.68,457.754 2632.5,447.5C 2632.39,446.883 2632.06,446.383 2631.5,446C 2674.83,445.5 2718.17,445.333 2761.5,445.5C 2761.19,449.042 2761.52,452.375 2762.5,455.5 Z"/></g>
<g><path style="opacity:1" fill="#07b3f6" d="M 2941.5,445.5 C 2962.17,445.5 2982.83,445.5 3003.5,445.5C 3003.5,451.833 3003.5,458.167 3003.5,464.5C 2982.83,464.5 2962.17,464.5 2941.5,464.5C 2941.5,458.167 2941.5,451.833 2941.5,445.5 Z"/></g>
<g><path style="opacity:0.981" fill="#06c0ec" d="M 134.5,494.5 C 137.059,497.933 139.392,501.599 141.5,505.5C 217.833,506.167 294.167,506.833 370.5,507.5C 369.5,509.813 368.166,511.813 366.5,513.5C 262.665,513.167 158.999,513.501 55.5,514.5C 51.8477,508.536 48.181,502.536 44.5,496.5C 74.5,495.833 104.5,495.167 134.5,494.5 Z"/></g>
<g><path style="opacity:0.996" fill="#06c0ec" d="M 534.5,493.5 C 563.815,495.492 593.481,496.159 623.5,495.5C 620.321,501.87 616.654,507.87 612.5,513.5C 533.833,513.5 455.167,513.5 376.5,513.5C 378.992,507.182 381.992,501.182 385.5,495.5C 397.5,495.5 409.5,495.5 421.5,495.5C 420.268,499.027 418.935,502.527 417.5,506C 453.833,506.667 490.167,506.667 526.5,506C 529.066,501.684 531.733,497.517 534.5,493.5 Z"/></g>
<g><path style="opacity:0.998" fill="#06bdee" d="M 366.5,513.5 C 357.475,527.525 345.808,538.858 331.5,547.5C 245.528,547.495 159.862,547.495 74.5,547.5C 67.9173,536.671 61.584,525.671 55.5,514.5C 158.999,513.501 262.665,513.167 366.5,513.5 Z"/></g>
<g><path style="opacity:0.997" fill="#06bdee" d="M 376.5,513.5 C 455.167,513.5 533.833,513.5 612.5,513.5C 605.89,525.434 598.89,537.1 591.5,548.5C 513.335,547.501 435.002,547.167 356.5,547.5C 363.17,536.159 369.837,524.825 376.5,513.5 Z"/></g>
<g><path style="opacity:0.996" fill="#07bbf0" d="M 331.5,547.5 C 329.025,550.241 326.025,552.241 322.5,553.5C 241.002,552.501 159.335,552.167 77.5,552.5C 76.2632,551.035 75.2632,549.368 74.5,547.5C 159.862,547.495 245.528,547.495 331.5,547.5 Z"/></g>
<g><path style="opacity:0.997" fill="#07bbf0" d="M 356.5,547.5 C 435.002,547.167 513.335,547.501 591.5,548.5C 591.25,550.674 590.25,552.341 588.5,553.5C 510.002,552.501 431.335,552.167 352.5,552.5C 353.604,550.611 354.937,548.945 356.5,547.5 Z"/></g>
<g><path style="opacity:0.995" fill="#07b9f1" d="M 77.5,552.5 C 159.335,552.167 241.002,552.501 322.5,553.5C 301.105,568.859 277.438,579.359 251.5,585C 242.506,585.5 233.506,585.666 224.5,585.5C 224.5,589.5 224.5,593.5 224.5,597.5C 210.245,596.518 195.912,596.184 181.5,596.5C 180.577,592.936 180.244,589.269 180.5,585.5C 152.498,585.667 124.498,585.5 96.5,585C 89.7766,574.385 83.4433,563.552 77.5,552.5 Z"/></g>
<g><path style="opacity:0.997" fill="#07b9f1" d="M 352.5,552.5 C 431.335,552.167 510.002,552.501 588.5,553.5C 582.776,563.942 576.776,574.275 570.5,584.5C 508.836,585.333 447.169,585.833 385.5,586C 383.267,589.651 380.934,593.151 378.5,596.5C 357.66,596.831 336.993,596.497 316.5,595.5C 329.7,582.052 341.7,567.718 352.5,552.5 Z"/></g>
<g><path style="opacity:0.992" fill="#07b6f4" d="M 181.5,596.5 C 195.912,596.184 210.245,596.518 224.5,597.5C 225.074,602.945 226.074,608.279 227.5,613.5C 212.912,614.483 198.245,614.816 183.5,614.5C 182.046,608.631 181.379,602.631 181.5,596.5 Z"/></g>
<g><path style="opacity:0.99" fill="#07b6f4" d="M 316.5,595.5 C 336.993,596.497 357.66,596.831 378.5,596.5C 374.983,602.881 370.983,608.881 366.5,614.5C 342.833,614.5 319.167,614.5 295.5,614.5C 302.773,608.565 309.773,602.232 316.5,595.5 Z"/></g>
<g><path style="opacity:0.99" fill="#07b2f6" d="M 227.5,613.5 C 233.484,635.491 247.151,642.658 268.5,635C 277.889,628.643 286.889,621.81 295.5,614.5C 319.167,614.5 342.833,614.5 366.5,614.5C 347.486,643 322.486,664.5 291.5,679C 285.107,681.338 278.774,683.505 272.5,685.5C 261.167,685.5 249.833,685.5 238.5,685.5C 210.479,675.967 192.979,656.634 186,627.5C 184.843,623.218 184.01,618.884 183.5,614.5C 198.245,614.816 212.912,614.483 227.5,613.5 Z"/></g>
</svg>
